<?xml version="1.0" standalone="no"?>
<!DOCTYPE svg PUBLIC "-//W3C//DTD SVG 1.1//EN" "http://www.w3.org/Graphics/SVG/1.1/DTD/svg11.dtd" >
<!--
2013-9-30: Created.
-->
<svg>
<metadata>
Created by iconfont
</metadata>
<defs>

<font id="iconfont" horiz-adv-x="1024" >
  <font-face
    font-family="iconfont"
    font-weight="500"
    font-stretch="normal"
    units-per-em="1024"
    ascent="896"
    descent="-128"
  />
    <missing-glyph />
    
    <glyph glyph-name="x" unicode="x" horiz-adv-x="1001"
d="M281 543q-27 -1 -53 -1h-83q-18 0 -36.5 -6t-32.5 -18.5t-23 -32t-9 -45.5v-76h912v41q0 16 -0.5 30t-0.5 18q0 13 -5 29t-17 29.5t-31.5 22.5t-49.5 9h-133v-97h-438v97zM955 310v-52q0 -23 0.5 -52t0.5 -58t-10.5 -47.5t-26 -30t-33 -16t-31.5 -4.5q-14 -1 -29.5 -0.5
t-29.5 0.5h-32l-45 128h-439l-44 -128h-29h-34q-20 0 -45 1q-25 0 -41 9.5t-25.5 23t-13.5 29.5t-4 30v167h911zM163 247q-12 0 -21 -8.5t-9 -21.5t9 -21.5t21 -8.5q13 0 22 8.5t9 21.5t-9 21.5t-22 8.5zM316 123q-8 -26 -14 -48q-5 -19 -10.5 -37t-7.5 -25t-3 -15t1 -14.5
t9.5 -10.5t21.5 -4h37h67h81h80h64h36q23 0 34 12t2 38q-5 13 -9.5 30.5t-9.5 34.5q-5 19 -11 39h-368zM336 498v228q0 11 2.5 23t10 21.5t20.5 15.5t34 6h188q31 0 51.5 -14.5t20.5 -52.5v-227h-327z" />
    

    
    <glyph glyph-name="xinxi" unicode="&#58882;" d="M512-200c-276.1367 0-500 223.8633-500 500s223.8633 500 500 500 500-223.8633 500-500-223.8633-500-500-500zM512 709.0908c-225.9541 0-409.0908-183.1367-409.0908-409.0908s183.1367-409.0908 409.0908-409.0908 409.0908 183.1367 409.0908 409.0908-183.1367 409.0908-409.0908 409.0908zM466.5459 27.2725c-45.4541 0-45.4541 45.4541-45.4541 45.4541l45.4541 227.2725c0 0 0 45.4541-45.4541 45.4541 0 0-45.4541 0-45.4541 45.4541h136.36328125c0 0 45.4541 0 45.4541-45.4541s-45.4541-181.8184-45.4541-227.2725 45.4541-45.4541 45.4541-45.4541h45.4541015625c0 0 0-45.4541-136.3633-45.4541zM557.4541 481.8184c-25.1367 0-45.4541 20.3184-45.4541 45.4541s20.3184 45.4541 45.4541 45.4541 45.4541-20.3184 45.4541-45.4541-20.3184-45.4541-45.4541-45.4541z"  horiz-adv-x="1024" />

    
    <glyph glyph-name="wenjian1" unicode="&#58883;" d="M800.350208 685.060864c17.676288-16.16384 31.751168-29.581312 42.22464-40.251392 10.473472-10.668032 18.490368-19.716096 24.059904-27.155456 5.567488-7.43424 8.999936-13.744128 10.308608-18.915328 1.31072-5.173248 1.965056-9.7024 1.965056-13.577216l0-15.520768L733.574144 569.640704c-6.546432 0-12.273664 2.425856-17.181696 7.273472-4.913152 4.849664-9.007104 10.510336-12.275712 16.971776-3.272704 6.470656-5.72928 13.099008-7.364608 19.889152-1.637376 6.784-2.45248 12.122112-2.45248 16.001024L694.299648 750.048l2.941952 0c5.235712 0 10.642432-0.809984 16.200704-2.423808 5.569536-1.615872 11.951104-4.687872 19.150848-9.217024 7.202816-4.523008 16.202752-10.993664 27.004928-19.39968C770.40128 710.602496 783.985664 699.28832 800.350208 685.060864L800.350208 685.060864zM632.430592 628.808448c0-12.934144 1.965056-26.351616 5.890048-40.251392 3.929088-13.904896 10.148864-26.83392 18.659328-38.796288 8.510464-11.963392 19.313664-21.824512 32.407552-29.587456 13.089792-7.7568 28.478464-11.634688 46.15168-11.634688l143.369216 0 0-547.037184c0-18.75456-3.762176-35.566592-11.2896-50.43712-7.529472-14.872576-17.511424-27.48416-29.956096-37.825536-12.435456-10.349568-26.182656-18.429952-41.239552-24.24832-15.054848-5.820416-29.787136-8.7296-44.189696-8.7296L269.09184-159.739136c-12.438528 0-26.021888 3.557376-40.75008 10.665984-14.732288 7.113728-28.478464 16.488448-41.247744 28.132352-12.763136 11.634688-23.40352 24.891392-31.913984 39.76192-8.510464 14.874624-12.765184 30.391296-12.765184 46.559232L142.414848 624.928512c0 13.577216 3.11296 27.644928 9.331712 42.192896 6.218752 14.550016 14.732288 27.96544 25.52832 40.251392 10.802176 12.285952 23.07584 22.467584 36.822016 30.55104 13.755392 8.08448 28.153856 12.12416 43.214848 12.12416l375.117824 0L632.429568 628.808448 632.430592 628.808448zM694.299648 23.577344c17.012736 0 31.418368 5.981184 43.201536 17.944576 11.782144 11.957248 17.676288 26.344448 17.676288 43.158528 0 16.81408-5.894144 31.038464-17.676288 42.6752-11.784192 11.640832-26.1888 17.461248-43.201536 17.461248L326.050816 144.816896c-17.021952 0-31.42656-5.820416-43.2128-17.461248-11.779072-11.636736-17.673216-25.862144-17.673216-42.6752 0-16.81408 5.894144-31.20128 17.673216-43.158528 11.78624-11.963392 26.190848-17.944576 43.2128-17.944576L694.299648 23.577344 694.299648 23.577344zM755.177472 326.189824c0 16.81408-5.894144 31.20128-17.676288 43.162624-11.784192 11.963392-26.1888 17.946624-43.201536 17.946624L326.050816 387.299072c-17.021952 0-31.42656-5.983232-43.2128-17.946624-11.779072-11.961344-17.673216-26.349568-17.673216-43.162624 0-16.806912 5.894144-31.034368 17.673216-42.6752 11.78624-11.636736 26.190848-17.457152 43.2128-17.457152l368.248832 0c17.012736 0 31.418368 5.820416 43.201536 17.457152C749.283328 295.154432 755.177472 309.381888 755.177472 326.189824L755.177472 326.189824zM755.177472 326.189824"  horiz-adv-x="1024" />

    
    <glyph glyph-name="renyuanguanli" unicode="&#58952;" d="M440.582 746.382c83.087-0.057 168.017-70.679 195.704-162.731 24.512-81.484-5.331-163.072-81.662-223.267-67.653-53.355-140.948-57.824-216.753-13.223-141.504 83.258-137.365 280.766 9.094 369.708C374.494 733.585 404.245 742.659 440.582 746.382 441.479 744.09 439.681 748.675 440.582 746.382zM356.365-64.579c-76.171 8.698-152.342 17.406-228.518 26.115-0.846 0.094-1.693 0.229-2.53 0.406-64.888 13.874-67.838 18.684-47.961 79.964 13.418 41.367 26.129 82.997 40.851 123.901 23.425 65.091 73.32 98.839 139.796 102.224 77.498 3.948 155.343 1.583 233.027 0.925 26.776-0.229 31.416-9.503 19.972-33.962-2.886-6.171-6.108-12.233-9.701-18.019-45.391-73.063-60.106-150.796-39.113-235.267 8.614-34.644 1.854-41.188-33.57-41.889-17.923-0.351-35.861-0.08-53.793-0.091-5.972-0.005-11.946 0-17.919 0C356.726-61.709 356.545-63.146 356.365-64.579zM499.362 125.161c13.253 3.405 26.285 7.25 39.539 10.044 20.704 4.359 23.545 14.631 10.862 30.438-8.001 9.98-16.429 19.621-26.445 31.528 10.644 14.393 21.677 29.252 32.634 44.164 10.566 14.365 21.06 28.786 32.885 44.973 13.924-10.422 26.506-20.181 39.442-29.447 20.173-14.456 33.798-10.95 43.854 12.251 5.362 12.368 8.509 25.699 13.379 40.831 25.765 0 52.16 1.15 78.315-0.879 5.907-0.456 13.318-11.121 16.024-18.546 19.871-54.576 22.087-55.387 68.674-19.063 5.958 4.647 12.257 8.859 20.008 14.426 21.962-29.485 43.166-57.962 67.577-90.741-9.424-7.451-18.829-13.539-26.585-21.278-21.857-21.803-19.161-31.461 10.142-39.15 12.311-3.229 24.681-6.227 37.639-9.481 0-29.877 0-58.684 0-88.384-14.479-4.13-28.511-7.304-41.934-12.145-23.55-8.49-26.29-22.586-8.072-39.134 8.118-7.375 16.841-14.084 25.002-20.853-29.621-28.5-58.432-56.229-89.579-86.196-6.157 5.506-15.893 14.524-25.974 23.152-18.61 15.913-34.894 9.78-39.233-14.65-1.043-5.887-1.804-11.825-2.666-17.743-0.736-5.04-1.438-10.086-2.419-16.99-28.796 0-57.308 0-88.037 0-2.74 12.682-5.046 25.936-8.522 38.866-5.041 18.74-16.255 25.67-34.363 15.247-16.265-9.358-32.242-19.225-50.902-30.398-22.343 28.866-45.009 58.148-68.483 88.478 9.363 8.071 17.962 14.966 25.983 22.482 18.865 17.688 16.27 29.52-8.752 38.333-12.728 4.484-25.937 7.619-39.991 11.668C499.362 66.22 499.362 94.971 499.362 125.161zM842.321 82.509c-0.311 64.091-51.979 115.439-115.634 114.923-63.916-0.516-114.537-52.221-114.086-116.516 0.45-64.041 51.859-114.751 116.04-114.47C792.847-33.264 842.632 17.566 842.321 82.509z"  horiz-adv-x="1024" />

    
    <glyph glyph-name="danwei" unicode="&#58975;" d="M1020.586667 286.346667c0-27.306667-20.48-47.786667-47.786667-47.786667-13.653333 0-23.893333 3.413333-34.133333 13.653333l0 0L512 678.88l0 0 0 0L81.92 252.213333l0 0c-10.24-6.826667-20.48-13.653333-34.133333-13.653333-27.306667 0-47.786667 20.48-47.786667 47.786667 0 13.653333 6.826667 27.306667 13.653333 34.133333L477.866667 781.28c10.24 10.24 20.48 13.653333 34.133333 13.653333l0 0c0 0 0 0 3.413333 0 0 0 0 0 0 0 0 0 0 0 3.413333 0 0 0 0 0 0 0 10.24 0 20.48-6.826667 30.72-13.653333l0 0 187.733333-187.733333L737.28 634.506667c0 27.306667 20.48 47.786667 47.786667 47.786667 27.306667 0 47.786667-20.48 47.786667-47.786667l0-139.946667 177.493333-177.493333 0 0C1017.173333 310.24 1020.586667 296.586667 1020.586667 286.346667M925.013333 204.426667 925.013333 61.066667l0-64.853333 0-126.293333c0-27.306667-20.48-47.786667-47.786667-47.786667l-95.573333 0L781.653333 204.426667l-191.146667 0L590.506667-177.866667 146.773333-177.866667c-27.306667 0-47.786667 20.48-47.786667 47.786667l0 126.293333L98.986667 61.066667l0 143.36L512 620.853333 925.013333 204.426667zM433.493333 204.426667 242.346667 204.426667l0-191.146667 191.146667 0L433.493333 204.426667z"  horiz-adv-x="1024" />

    
    <glyph glyph-name="xinxi1" unicode="&#58929;" d="M512 684c212.032 0 384-171.968 384-384s-171.968-384-384-384-384 171.968-384 384S299.968 684 512 684M512 748C264.96 748 64 547.04 64 300c0-246.976 200.96-448 448-448 246.976 0 448 201.024 448 448C960 547.04 758.976 748 512 748L512 748zM480 372l64 0 0-320-64 0 0 320ZM512 474.08m-48 0a0.75 0.75 0 1 0 96 0 0.75 0.75 0 1 0-96 0Z"  horiz-adv-x="1024" />

    
    <glyph glyph-name="shouye1" unicode="&#59093;" d="M660.931435 414.084315c-16.344916 15.452947-31.059639 29.41903-44.134958 41.900296l-33.88101 31.204699c-8.917456 8.327666-14.263426 13.375635-16.048145 15.160281-16.641687 15.454994-35.369981 22.730701-56.171579 21.840424-20.805691-0.889253-38.638555-8.1711-53.4945-21.840424-2.383378-2.378164-8.177575-7.875365-17.390778-16.499789-9.20911-8.619308-20.653212-19.164478-34.32412-31.646767-13.668861-12.476149-28.82567-26.301016-45.473497-41.453111-16.645781-15.162328-33.287468-30.464849-49.923015-45.918819-39.830756-36.252669-84.111029-76.670194-132.854124-121.247458L177.235709-100.096351c0-14.262842 5.054316-25.261337 15.157832-32.984229 10.108633-7.730055 23.778517-11.588943 41.016816-11.588943l175.649519 0c-0.119732 1.866511-0.2016 3.744277-0.2016 5.641487L408.858277 13.035266c0 48.060599 38.961933 87.020936 87.025525 87.020936l32.231373 0c48.062568 0 87.024501-38.960337 87.024501-87.020936l0-152.064324c0-1.89721-0.081868-3.773953-0.2016-5.641487l175.72013 0c16.643734 0.590448 29.869485 5.941316 39.672137 16.044418 9.811862 10.106172 14.717793 21.695115 14.717793 34.770921l0 337.650113c-49.33766 45.76737-93.917774 87.074148-133.740343 123.926474C694.066424 383.175351 677.276351 398.629321 660.931435 414.084315zM959.165779 333.846876c-0.595589 14.266935-7.128643 27.336602-19.61349 39.225373l-22.291592 22.287609c-11.289577 11.295254-25.256232 24.817222-41.904059 40.563858-16.641687 15.754822-34.919708 33.43653-54.833039 53.049217-19.907191 19.617803-40.272842 39.375799-61.073416 59.290361-20.805691 19.915585-41.308471 39.673581-61.513456 59.291384-20.219312 19.612687-38.492216 37.294394-54.842249 53.0441-16.3398 15.750729-30.167279 29.127388-41.454809 40.120766-11.29674 10.998495-18.724201 17.97949-22.295686 20.955264-18.42129 17.83418-40.708789 26.598798-66.871707 26.295899-26.146545-0.296759-50.522697-11.435447-73.103897-33.431414-2.97692-2.967588-13.526616-12.924357-31.653181-29.863145-18.129635-16.941857-39.824616-37.298488-65.086988-61.07603-25.265442-23.775496-52.604187-49.333592-82.029539-76.67531-29.420235-27.336602-56.913506-52.898791-82.470602-76.670194-25.559143-23.777543-47.550894-44.284599-65.978324-61.519122-18.426406-17.2335-29.420235-27.6395-32.990697-31.203676-9.509974-8.916067-14.564291-20.951171-15.152716-36.103266-0.597635-15.161305 5.0492-28.091802 16.938458-38.788421 10.701151-9.508561 23.480723-13.964036 38.336668-13.371542 14.860038 0.594541 26.749297 4.455475 35.665729 11.586896 2.972826 2.379187 11.737803 10.254551 26.303117 23.626094 14.559174 13.372565 31.948929 29.574572 52.155961 48.594765 20.212149 19.018146 42.204923 39.522132 65.982417 61.512982 23.7734 21.995967 46.362787 43.092447 67.756903 63.303768 21.400256 20.207227 40.272842 37.887912 56.617758 53.05024 16.344916 15.152095 27.489177 25.405623 33.438923 30.751375 17.829794 16.052604 35.958406 24.375154 54.379696 24.968671 18.431523 0.592494 37.155724-7.730055 56.176695-24.968671 4.158887-3.565199 13.965632-12.773931 29.420235-27.633361 15.454603-14.860453 33.886127-32.396851 55.278196-52.602032 21.401279-20.212344 44.138028-41.756009 68.206153-64.642253 24.079381-22.881127 46.660581-44.279483 67.76816-64.188928 21.099392-19.909445 39.22698-37.001729 54.384813-51.263547 15.157832-14.267958 24.215487-22.590508 27.192406-24.968671 8.916432-7.723915 20.804667-11.889795 35.658565-12.478196 14.863108-0.596588 27.944567 4.158716 39.232097 14.262842C955.005869 307.691169 959.761368 319.579941 959.165779 333.846876z"  horiz-adv-x="1024" />

    
    <glyph glyph-name="shenqing" unicode="&#58896;" d="M890.160364-212 127.173446-212C56.958293-212 0.00384-155.045547 0.00384-84.799674l0 763.283875C0.00384 748.740314 57.777487 811.726082 128.02336 811.726082l511.99616 0 0-63.97904-511.99616 0c-35.122937 0-64.429597-34.119424-64.429597-69.252601l0-763.294115c0-35.102457 28.466986-63.579683 63.579683-63.579683L890.160364-148.379357c35.081977 0 69.815796 29.234981 69.815796 64.337437L959.97616 427.821121 1023.99616 427.821121l0-511.863041C1023.99616-154.298033 960.355037-212 890.160364-212L890.160364-212zM510.115854 96.242168c-9.27737-9.29785-20.940643-13.957015-32.941833-16.301958L198.801709-57.725317c-31.323925-14.520211-56.411737 13.537178-44.881583 44.881583l137.614328 278.515671c2.344942 12.00119 6.983628 23.643983 16.291718 32.941833L802.373502 793.37614c24.821574 24.831814 65.064472 24.831814 89.916766 0l112.362677-112.434357c24.842054-24.831814 24.842054-65.115672 0-89.947485L510.115854 96.242168 510.115854 96.242168zM214.827189 25.637898c-7.270345-14.66357 6.768589-29.695777 22.404952-22.435672L409.150211 107.280805l-90.275163 90.336602L214.827189 25.637898 214.827189 25.637898zM375.256066 231.153156l67.429894-67.460614c12.421027-12.421027-19.650413 19.681132 22.486871-22.456152l359.656823 359.789942L711.637543 612.661975 352.779434 253.680987C364.719185 241.720757 362.855519 243.574183 375.256066 231.153156L375.256066 231.153156zM937.233291 658.434432l-67.440134 67.470854c-12.400547 12.441507-32.542476 12.441507-44.963503 0l-65.822226-65.842706 110.755009-114.062505 67.440134 67.470854C949.654318 625.902196 949.654318 646.033885 937.233291 658.434432L937.233291 658.434432zM937.233291 658.434432"  horiz-adv-x="1024" />

    
    <glyph glyph-name="zigerenzheng" unicode="&#58924;" d="M125 739.611l774 0 0-141.803-774 0 0 141.803ZM511.016 485.04c84.607 0 161.512-33.879 218.634-89.153l157.534 172.38L134.848 568.267l157.535-172.38C349.505 451.161 426.41 485.04 511.016 485.04zM512.002 444.192c-153.91 0-278.68-124.772-278.68-278.682s124.77-278.676 278.68-278.676c153.908 0 278.68 124.766 278.68 278.676S665.91 444.192 512.002 444.192zM620.615 10.947l-108.613 57.1-108.616-57.1 20.745 120.943-87.87 85.651 121.434 17.646 54.307 110.039 54.306-110.039 121.433-17.646-87.868-85.651L620.615 10.947z"  horiz-adv-x="1024" />

    
    <glyph glyph-name="tuichu1" unicode="&#58912;" d="M892.018571 407.894336c-20.781302 49.129954-50.523697 93.247754-88.404446 131.128503-37.880749 37.879726-81.998549 67.623144-131.128503 88.403422-12.281721 5.194302-24.75173 9.754155-37.379329 13.707187-0.177032-18.057261-0.425695-36.114522 0.164752-54.152341 138.699945-50.53393 238.012835-183.720302 238.012835-339.679329 0-199.271486-162.120354-361.390817-361.39184-361.390817-199.270463 0-361.389794 162.119331-361.389794 361.390817 0 155.037029 98.141204 287.566438 235.554854 338.771657l0 54.229089c-11.733229-3.758604-23.326265-8.04114-34.757618-12.876262-49.129954-20.780279-93.247754-50.523697-131.12748-88.404446-37.880749-37.879726-67.623144-81.997526-88.404446-131.12748-21.519106-50.878784-32.43062-104.910375-32.43062-160.593582s10.911514-109.714797 32.43062-160.593582c20.780279-49.130977 50.523697-93.247754 88.404446-131.128503 37.879726-37.880749 81.997526-67.624167 131.12748-88.404446 50.877761-21.519106 104.909351-32.43062 160.592558-32.43062s109.715821 10.911514 160.594605 32.43062c49.129954 20.780279 93.247754 50.523697 131.128503 88.404446 37.880749 37.879726 67.623144 81.997526 88.404446 131.128503 21.519106 50.878784 32.43062 104.910375 32.43062 160.593582S913.537677 357.016575 892.018571 407.894336zM481.193879 747.240067l61.398372 0 0-447.240067-61.398372 0 0 447.240067Z"  horiz-adv-x="1024" />

    
    <glyph glyph-name="baoxianzhushouicon07" unicode="&#59587;" d="M677.953517 645.852025 195.411753 645.852025c-12.765655 0-20.425048-10.212524-20.425048-20.425048S182.646098 605.001928 195.411753 605.001928l482.541764 0c12.765655 0 20.425048 10.212524 20.425048 20.425048S688.166041 645.852025 677.953517 645.852025zM662.634731 492.664163c0 10.212524-10.212524 20.425048-20.425048 20.425048L187.75236 513.089211c-10.212524 0-20.425048-10.212524-20.425048-20.425048s10.212524-20.425048 20.425048-20.425048l457.010454 0C654.975337 472.239115 662.634731 479.898508 662.634731 492.664163zM187.75236 367.560743c-10.212524 0-20.425048-10.212524-20.425048-20.425048 0-10.212524 10.212524-20.425048 20.425048-20.425048l293.610068 0c10.212524 0 20.425048 10.212524 20.425048 20.425048 0 10.212524-10.212524 20.425048-20.425048 20.425048L187.75236 367.560743zM414.981021 224.585405l-229.781792 0c-10.212524 0-20.425048-10.212524-20.425048-20.425048s10.212524-20.425048 20.425048-20.425048l229.781792 0c10.212524 0 20.425048 10.212524 20.425048 20.425048S427.746676 224.585405 414.981021 224.585405zM93.286512-17.962042 93.286512 765.849183c0 2.553131 2.553131 7.659393 7.659393 7.659393l638.282756 0c2.553131 0 7.659393-2.553131 7.659393-7.659393l0-377.863392c15.318786 0 22.978179 0 40.850096 0L787.738151 765.849183c0 25.53131-20.425048 45.956358-45.956358 45.956358l-638.282756 0C72.861464 814.358672 52.436415 791.380493 52.436415 765.849183l0-786.364356c0-25.53131 20.425048-45.956358 45.956358-45.956358l306.375723 0 0 38.296965c0 0 0 2.553131 0 2.553131l-306.375723 0C95.839643-25.621435 93.286512-23.068304 93.286512-17.962042zM828.588247-209.446869l-2.553131 0c-12.765655 0-22.978179 7.659393-28.084441 17.871917L716.250482-43.493352c-5.106262 0-10.212524 0-12.765655 0l-79.147062-145.528468c-5.106262-12.765655-17.871917-17.871917-30.637572-17.871917l-2.553131 0c-12.765655 2.553131-25.53131 10.212524-30.637572 22.978179L537.53131-122.640414l-66.381407-15.318786c-12.765655-2.553131-28.084441 2.553131-35.743834 12.765655-7.659393 10.212524-10.212524 25.53131-2.553131 38.296965l91.912717 168.506648c-10.212524 22.978179-12.765655 48.509489-12.765655 74.0408 0 109.784634 89.359586 199.14422 199.14422 199.14422 53.615752 0 104.678372-20.425048 142.975337-58.722014 38.296965-38.296965 58.722014-89.359586 58.722014-140.422206 0-25.53131-5.106262-48.509489-12.765655-71.487669l91.912717-171.059779c7.659393-12.765655 5.106262-28.084441-2.553131-38.296965-7.659393-10.212524-22.978179-15.318786-35.743834-12.765655l-66.381407 15.318786L861.778951-186.46869C856.672688-199.234345 843.907033-209.446869 828.588247-209.446869L828.588247-209.446869zM739.228661-2.643256l89.359586-163.400386 33.190703 89.359586 94.465848-22.978179-97.018979 181.272303 5.106262 7.659393c10.212524 20.425048 12.765655 43.403227 15.318786 63.828276 0 43.403227-15.318786 84.253324-45.956358 114.890896-30.637572 30.637572-71.487669 48.509489-114.890896 48.509489-89.359586 0-160.847255-71.487669-163.400386-160.847255 0-22.978179 5.106262-45.956358 15.318786-66.381407l5.106262-7.659393-99.57211-178.719172 94.465848 20.425048 30.637572-89.359586 89.359586 163.400386 17.871917-2.553131c2.553131 0 7.659393 0 10.212524 0 2.553131 0 5.106262 0 7.659393 0L739.228661-2.643256zM711.14422-33.280828 711.14422-33.280828c-53.615752 0-102.125241 20.425048-137.869075 58.722014-35.743834 35.743834-56.168883 86.806455-56.168883 137.869075 0 107.231503 86.806455 194.037958 194.037958 194.037958 53.615752 0 102.125241-20.425048 137.869075-58.722014 35.743834-35.743834 56.168883-86.806455 56.168883-137.869075C905.182178 53.525627 818.375723-33.280828 711.14422-33.280828zM711.14422 316.498122c-86.806455 0-155.740993-68.934538-155.740993-155.740993 0-40.850096 15.318786-81.700193 45.956358-109.784634 30.637572-30.637572 68.934538-45.956358 109.784634-45.956358l0-20.425048 0 20.425048c86.806455 0 155.740993 68.934538 155.740993 155.740993 0 40.850096-15.318786 81.700193-45.956358 109.784634C792.844413 301.179336 754.547447 316.498122 711.14422 316.498122z"  horiz-adv-x="1024" />

    
    <glyph glyph-name="huji" unicode="&#58881;" d="M511.952416 831.240067c-264.775362 0-479.521285-214.745922-479.521285-479.567333 0-264.899182 214.744899-479.645105 479.521285-479.645105 264.868483 0 479.613382 214.744899 479.613382 479.645105C991.570915 616.494145 776.820899 831.240067 511.952416 831.240067L511.952416 831.240067zM511.952416-93.6998c-245.953691 0-445.297832 199.395306-445.297832 445.372533 0 245.921969 199.344141 445.296809 445.297832 445.296809 245.951645 0 445.342858-199.37484 445.342858-445.296809C957.301414 105.695506 757.904061-93.6998 511.952416-93.6998L511.952416-93.6998zM511.952416-93.6998M792.074302 382.128373c-4.319375-5.575995-12.30628-6.538927-17.859763-2.194992l-31.711236 24.033369L742.503303 110.015905c0-7.048533-5.716188-12.742209-12.765745-12.742209L567.921125 97.273696c-3.428076 0-6.614651 1.349741-9.027607 3.714602-2.364861 2.38942-7.700379 5.647627-7.700379 9.027607L551.193139 249.751437l-76.42767 0L474.765469 110.015905c0-7.048533-5.748934-12.742209-12.796444-12.742209L296.431851 97.273696c-7.042393 0-12.718673 5.693676-12.718673 12.742209L283.713178 405.270443l-33.977859-25.384134c-2.318812-1.790786-5.071506-2.659573-7.770987-2.659573-3.791349 0-7.577582 1.715061-10.112312 4.948709-4.273327 5.574972-3.258207 13.540388 2.288113 17.882276l271.707238 203.282846c4.629437 3.574409 11.050684 3.52222 15.658631-0.069585l268.442892-203.281823C795.456329 395.668761 796.418236 387.65832 792.074302 382.128373L792.074302 382.128373zM513.618359 577.08253l-204.824969-153.030325c0.116657-0.656963 0.410346-1.208525 0.410346-1.835811l0-299.481815 140.046616 0 0 139.783627c0 7.072069 5.723352 12.748349 12.719696 12.748349l102.013395 0c3.333932 0 6.591115-1.333368 8.979512-3.721765s3.739161-5.646604 3.739161-9.026584l-0.047072-139.783627 140.362818 0L717.017862 417.585933c0 1.713015 0.364297 3.373841 0.961908 4.870938L513.618359 577.08253 513.618359 577.08253zM513.618359 577.08253"  horiz-adv-x="1024" />

    
    <glyph glyph-name="renyuanguanli1" unicode="&#58890;" d="M946.7392 179.2C974.2848 179.2 996.7616 156.16 996.7616 128 996.7616 99.84 974.2848 76.8 946.7392 76.8L937.5744 76.8C935.8336 71.7824 933.9392 66.9184 931.7376 62.1568L938.1888 55.6032C957.6448 35.6864 957.6448 3.072 938.1888-16.7936 918.7328-36.7104 886.8864-36.7104 867.4304-16.7936L860.9792-10.24C856.32-12.4928 851.5584-14.4384 846.6944-16.1792L846.6944-25.6C846.6944-53.76 824.1664-76.8 796.672-76.8 769.1264-76.8 746.6496-53.76 746.6496-25.6L746.6496-16.1792C741.7344-14.4384 736.9728-12.4928 732.3136-10.24L725.9136-16.7936C706.4576-36.7104 674.6112-36.7104 655.1552-16.7936 635.6992 3.072 635.6992 35.6864 655.1552 55.6032L661.5552 62.1568C659.3536 66.9184 657.5104 71.7824 655.7696 76.8L646.5536 76.8C619.0592 76.8 596.5312 99.84 596.5312 128 596.5312 156.16 619.0592 179.2 646.5536 179.2L655.7696 179.2C657.5104 184.2176 659.3536 189.0816 661.5552 193.8432L655.1552 200.3968C635.6992 220.3136 635.6992 252.8768 655.1552 272.7936 674.6112 292.7104 706.4576 292.7104 725.9136 272.7936L732.3136 266.24C736.9728 268.4928 741.7344 270.4384 746.6496 272.1792L746.6496 281.6C746.6496 309.76 769.1264 332.8 796.672 332.8 824.1664 332.8 846.6944 309.76 846.6944 281.6L846.6944 272.1792C851.5584 270.4384 856.32 268.4928 860.9792 266.24L867.4304 272.7936C886.8864 292.7104 918.7328 292.7104 938.1888 272.7936 957.6448 252.8768 957.6448 220.3136 938.1888 200.3968L931.7376 193.8432C933.9392 189.0816 935.8336 184.2176 937.5744 179.2L946.7392 179.2ZM796.672 230.4C741.4784 230.4 696.576 184.4736 696.576 128 696.576 71.5264 741.4784 25.6 796.672 25.6 851.8144 25.6 896.7168 71.5264 896.7168 128 896.7168 184.4736 851.8144 230.4 796.672 230.4ZM584.3968 345.2416C564.1216 324.4544 550.656 298.6496 544.512 270.6432 518.0928 277.1456 491.008 281.6 463.0016 281.6 313.7536 281.6 180.6848 184.6784 131.9424 40.448 126.9248 25.7024 129.3312 9.728 138.496-3.4304 148.2752-17.5616 163.4816-25.6 180.1728-25.6L547.7376-25.6C554.7008-48.8448 566.4768-70.8608 584.3968-89.2416 602.9824-108.288 625.8688-121.0368 650.6496-128L180.1728-128C131.3792-128 85.3504-103.6288 56.9344-62.8224 28.8256-22.3744 21.6576 27.4944 37.376 73.9328 81.5616 204.5952 179.5584 304.7424 300.6464 352.7168 252.672 399.4624 222.3104 464.896 222.3104 537.6L222.3104 640C222.3104 780.8 334.8992 896 472.4736 896 610.0992 896 722.6368 780.8 722.6368 640L722.6368 537.6C722.6368 481.792 704.5632 430.4896 674.4576 388.5568 640.4608 384.8192 608.8704 370.2784 584.3968 345.2416ZM622.592 640C622.592 724.6848 555.264 793.6 472.4736 793.6 389.7344 793.6 322.4064 724.6848 322.4064 640L322.4064 537.6C322.4064 452.9152 389.7344 384 472.4736 384 555.264 384 622.592 452.9152 622.592 537.6L622.592 640Z"  horiz-adv-x="1024" />

    
    <glyph glyph-name="iconfontjiudianjingquwanlexiangqingyeicon12" unicode="&#58906;" d="M477.214099 0.163898 318.946506 0.163898 240.602703 0.163898l-6.009792 0c-2.669802 0-5.326226 0.104603-7.986297 0.289482-1.511874 0.099737-3.017667 0.271237-4.52346 0.435439 8.371868-0.943857 2.921579-0.36611 1.078868-0.047436-3.411752 0.59356-6.771203 1.441328-10.096597 2.38032-2.826707 0.7979-5.587732 1.783112-8.324432 2.823058-5.097559 1.942449 5.910055-2.618717 0.940208-0.395301-1.319697 0.594776-2.617501 1.245502-3.914089 1.897445-2.579795 1.295371-5.074449 2.759809-7.531397 4.271684-1.98137 1.221176-11.141408 8.066574-4.047883 2.508033-4.51373 3.539465-8.646754 7.555723-12.490297 11.80673-0.959669 1.059407-1.881633 2.16625-2.798731 3.269444-3.434862 4.128159 3.815567-5.121885 0.622751-0.802765-2.005697 2.702643-3.810702 5.53908-5.525701 8.427818-1.477818 2.484923-2.798731 5.064719-4.057613 7.670057-0.77479 1.5958-2.823058 6.594838 0.317457-0.988861-0.560719 1.350105-1.059407 2.72332-1.558094 4.096535-2.19909 6.034118-3.672043 12.305418-4.675499 18.638749 1.464438-9.247612 0.034057 1.247935-0.080277 3.539465-0.085142 1.543499-0.104603 3.093079-0.104603 4.632928l0 0.640996 0 10.105111 0 51.655508L159.837225 322.785504l0 213.24363 0 141.724548 0 12.656931 0 1.852442c0 2.053133 0.071762 4.095319 0.180014 6.148452 0.081493 1.515523 0.228666 3.035912 0.37584 4.54657 0.550989 5.615708-1.016836-6.608217-0.132578-1.054542 1.00224 6.3236 2.750079 12.514623 4.940655 18.534146 0.608155 1.667562 2.77927 6.628895-0.474361-0.907368 0.578964 1.330644 1.211446 2.636962 1.842711 3.94328 1.258882 2.604122 2.689263 5.11702 4.167081 7.601943 1.472953 2.471544 3.102809 4.851864 4.775237 7.184749 3.140515 4.370205-3.987067-4.974712-0.613021-0.799116 1.201715 1.492413 2.480058 2.913065 3.758401 4.338581 1.929069 2.123679 3.985851 4.123294 6.08642 6.076689 1.56296 1.458357 9.501821 7.721142 2.375455 2.290313 4.969846 3.791241 10.366618 6.998653 15.94462 9.805899 1.297804 0.650726 2.622366 1.240637 3.94328 1.839062-7.435309-3.33999-2.594391-1.116573-0.902503-0.470712 2.74643 1.046027 5.554892 1.905959 8.376733 2.703859 2.855898 0.80763 5.762881 1.430382 8.68446 1.976505 1.806222 0.341783 7.331922 1.031432-1.082517-0.047436 2.00448 0.261507 4.023557 0.413546 6.047498 0.546124 2.461813 0.161769 4.927276 0.184879 7.393954 0.184879l112.960011 0 209.622673 0 183.530371 0 43.630289 0 3.297419 0c0.632482 0 1.258882-0.008514 1.896229-0.008514 3.050508-0.029191 6.101016-0.251776 9.141793-0.552205 5.615708-0.550989-6.609434 1.011971-1.054542 0.138659 1.96191-0.318673 3.91044-0.727354 5.849239-1.155495 2.883873-0.636131 5.72031-1.463222 8.533637-2.346264 2.076243-0.650726 11.587794-4.570896 3.245118-0.9694 5.749502-2.484923 11.198575-5.625438 16.387357-9.132062 1.188336-0.802765 2.342615-1.657832 3.501759-2.512898-6.465909 4.788616-2.218551 1.690672-0.850201 0.555854 2.205172-1.834197 4.294794-3.800972 6.333331-5.820048 2.043402-2.015427 3.95301-4.157351 5.820048-6.333331 1.1409-1.335509 4.35196-5.587732-0.555854 0.850201 1.159144-1.525254 2.247743-3.107674 3.320529-4.69496 3.240252-4.798347 5.953842-9.925097 8.319567-15.194156-3.706099 8.247804 0.279752-1.144549 0.974265-3.245118 1.088598-3.277958 1.924204-6.617948 2.664937-9.982264 0.318673-1.463222 0.58018-2.931309 0.831957-4.399397 0.964535-5.540296-0.769925 6.661735-0.132578 1.049676 0.341783-3.035912 0.475578-6.08642 0.546124-9.140577 0.014596-0.717623 0.00973-1.435247 0.00973-2.15287l0-14.605462 0-73.890888 0-208.620433 0-76.999779c0-14.396256 12.01107-26.402461 26.402461-26.402461s26.402461 12.006205 26.402461 26.402461L916.152735 444.815546 916.152735 646.908038l0 44.851465c0 23.134234-6.271299 46.082372-18.107221 65.966623-15.313354 25.707948-39.235758 43.986668-66.925076 54.524786-18.524415 7.054603-38.024312 7.255295-57.46096 7.255295l-59.960479 0-198.25868 0L315.036066 819.506206 252.381458 819.506206c-17.09525 0-33.648025 0.070546-50.514609-4.162216C146.619575 801.451287 107.032303 748.778943 107.032303 692.230215l0-25.846607 0-157.155885 0-215.312575 0-174.478585 0-40.996976c0-36.978285 13.693228-72.628358 41.434848-97.75126 22.506617-20.38902 50.957346-31.633814 81.183889-33.225965 5.925867-0.307727 11.916198-0.099737 17.845714-0.099737l87.479514 0 142.232966 0c14.391391 0 26.402461 12.007421 26.402461 26.398812S491.610355 0.163898 477.214099 0.163898L477.214099 0.163898 477.214099 0.163898 477.214099 0.163898zM477.214099 0.163898M339.699203 566.16567l134.230857 0 189.417316 0 20.136027 0c14.391391 0 26.402461 12.01107 26.402461 26.402461 0 14.387742-12.01107 26.398812-26.402461 26.398812L549.251329 618.966943l-189.416099 0-20.136027 0c-14.391391 0-26.402461-12.01107-26.402461-26.398812C313.301607 578.17674 325.307812 566.16567 339.699203 566.16567L339.699203 566.16567 339.699203 566.16567 339.699203 566.16567zM339.699203 566.16567M339.699203 359.896367l134.230857 0 189.417316 0 20.136027 0c14.391391 0 26.402461 12.01107 26.402461 26.402461s-12.01107 26.402461-26.402461 26.402461L549.251329 412.701289l-189.416099 0-20.136027 0c-14.391391 0-26.402461-12.01107-26.402461-26.402461C313.301607 371.907437 325.307812 359.896367 339.699203 359.896367L339.699203 359.896367 339.699203 359.896367 339.699203 359.896367zM339.699203 359.896367M339.699203 153.631928l137.510031 0c14.391391 0 26.402461 12.006205 26.402461 26.398812 0 14.39504-12.01107 26.397596-26.402461 26.397596L339.699203 206.428336c-14.391391 0-26.402461-12.002556-26.402461-26.397596C313.301607 165.638133 325.307812 153.631928 339.699203 153.631928L339.699203 153.631928 339.699203 153.631928 339.699203 153.631928zM339.699203 153.631928M916.967663 55.153315c0 52.679642-39.562945 101.551015-90.073905 106.807911l0 1.03873L660.599729 162.999955l53.149138 54.164758-57.693276-5.281222-69.625286-70.707803 69.625286-70.685909 57.693276-5.280006-52.160277 53.129677L804.537963 118.339451c44.358859 0 74.128069-18.205742 74.128069-63.163026 0-44.931742-29.770426-63.18492-74.128069-63.18492L606.327936-8.008495l0-44.683614 220.54028 0 0 1.037513c50.535286 5.233786 90.098231 48.09415 90.098231 100.726356L916.966447 55.153315zM606.050617 141.176904l0.277319 0.277319 0-0.554638L606.050617 141.176904 606.050617 141.176904zM606.050617 141.176904"  horiz-adv-x="1024" />

    
    <glyph glyph-name="licaifafangicon" unicode="&#58914;" d="M943.301562 449.183582 801.171494 449.183582c-10.737552 0-19.442818 8.705266-19.442818 19.442818s8.705266 19.442818 19.442818 19.442818l142.131091 0c10.737552 0 19.442818-8.705266 19.442818-19.442818S954.040137 449.183582 943.301562 449.183582zM221.624075 449.183582l-140.29528 0c-10.738575 0-19.442818 8.705266-19.442818 19.442818s8.704243 19.442818 19.442818 19.442818l140.29528 0c10.738575 0 19.442818-8.705266 19.442818-19.442818S232.36265 449.183582 221.624075 449.183582zM81.339028 449.183582c-5.538133 0-11.037381 2.352581-14.883989 6.921643-6.915503 8.215102-5.862521 20.48045 2.351558 27.395954L499.751536 846.302111c8.214079 6.91448 20.479427 5.862521 27.39493-2.351558 6.915503-8.215102 5.862521-20.48045-2.352581-27.395954L93.850993 453.752644C90.204953 450.682725 85.759711 449.183582 81.339028 449.183582zM944.701444 449.183582c-4.420683 0-8.864902 1.499144-12.511965 4.570085L501.246587 816.5546c-8.215102 6.915503-9.268084 19.181875-2.352581 27.395954 6.916527 8.213056 19.182898 9.267061 27.39493 2.351558l430.942893-362.801956c8.214079-6.915503 9.268084-19.181875 2.352581-27.395954C955.739848 451.537186 950.238554 449.183582 944.701444 449.183582zM226.364029 32.494321c-10.738575 0-19.442818 8.705266-19.442818 19.442818L206.921211 465.85017c0 10.737552 8.704243 19.442818 19.442818 19.442818s19.442818-8.705266 19.442818-19.442818l0-413.913031C245.806847 41.199587 237.102604 32.494321 226.364029 32.494321zM226.364029 66.945971M769.355881-62.404026 258.178619-62.404026c-28.263717 0-51.257407 23.11751-51.257407 51.532677l0 73.724095c0 10.737552 8.704243 19.442818 19.442818 19.442818s19.442818-8.705266 19.442818-19.442818l0-73.724095c0-6.973832 5.54939-12.647041 12.371772-12.647041L769.355881-23.518391c6.822382 0 12.372795 5.67321 12.372795 12.647041l0 88.050382c0 10.737552 8.705266 19.442818 19.442818 19.442818s19.442818-8.705266 19.442818-19.442818l0-88.050382C820.614311-39.287539 797.619598-62.404026 769.355881-62.404026zM801.171494 42.386622c-10.737552 0-19.442818 8.705266-19.442818 19.442818L781.728676 238.69359c0 10.737552 8.705266 19.442818 19.442818 19.442818s19.442818-8.705266 19.442818-19.442818l0-176.86415C820.614311 51.091888 811.909046 42.386622 801.171494 42.386622zM801.171494 333.483466c-10.737552 0-19.442818 8.705266-19.442818 19.442818L781.728676 459.957972c0 10.738575 8.705266 19.442818 19.442818 19.442818s19.442818-8.704243 19.442818-19.442818l0-107.032712C820.614311 342.188732 811.909046 333.483466 801.171494 333.483466zM434.661076 355.900012c-4.888334 0-9.780761 1.831718-13.55983 5.510504l-80.84426 78.689177c-7.695263 7.489578-7.861038 19.798928-0.37146 27.494191 7.489578 7.694239 19.799952 7.861038 27.494191 0.37146l80.84426-78.689177c7.695263-7.489578 7.861038-19.798928 0.37146-27.494191C444.783621 357.866806 439.724395 355.900012 434.661076 355.900012zM604.228029 360.843604c-5.064342 0-10.123568 1.966795-13.934361 5.881964-7.489578 7.695263-7.322779 20.004613 0.37146 27.494191l80.84426 78.688153c7.694239 7.489578 20.004613 7.322779 27.493168-0.37146 7.489578-7.695263 7.322779-20.004613-0.37146-27.494191l-80.84426-78.689177C614.007767 362.676345 609.114316 360.843604 604.228029 360.843604zM700.907952 317.097264l-377.272529 0c-10.738575 0-19.442818 8.705266-19.442818 19.442818s8.704243 19.442818 19.442818 19.442818l377.272529 0c10.737552 0 19.442818-8.705266 19.442818-19.442818S711.645504 317.097264 700.907952 317.097264zM700.907952 181.277926l-377.272529 0c-10.738575 0-19.442818 8.705266-19.442818 19.442818s8.704243 19.442818 19.442818 19.442818l377.272529 0c10.737552 0 19.442818-8.705266 19.442818-19.442818S711.645504 181.277926 700.907952 181.277926zM512.270664 37.917844c-10.737552 0-19.442818 8.705266-19.442818 19.442818L492.827847 324.680986c0 10.737552 8.705266 19.442818 19.442818 19.442818s19.442818-8.705266 19.442818-19.442818l0-267.320325C531.713482 46.62311 523.00924 37.917844 512.270664 37.917844z"  horiz-adv-x="1024" />

    
    <glyph glyph-name="02" unicode="&#58888;" d="M416.011999 847.942007 128.047994 847.942007c-35.323585 0-63.992001-28.668416-63.992001-63.992001l0-287.964004c0-35.323585 28.668416-63.992001 63.992001-63.992001l287.964004 0c35.323585 0 63.992001 28.668416 63.992001 63.992001l0 287.964004C480.004 819.273591 451.335583 847.942007 416.011999 847.942007zM895.952006 847.942007l-287.964004 0c-35.323585 0-63.992001-28.668416-63.992001-63.992001l0-287.964004c0-35.323585 28.668416-63.992001 63.992001-63.992001L895.952006 431.994001c35.323585 0 63.992001 28.668416 63.992001 63.992001l0 287.964004C959.944007 819.273591 931.275591 847.942007 895.952006 847.942007zM416.011999 368.002 128.047994 368.002c-35.323585 0-63.992001-28.668416-63.992001-63.992001l0-319.960005c0-35.323585 28.668416-63.992001 63.992001-63.992001l287.964004 0c35.323585 0 63.992001 28.668416 63.992001 63.992001l0 319.960005C480.004 339.333583 451.335583 368.002 416.011999 368.002zM895.952006 368.002l-287.964004 0c-35.323585 0-63.992001-28.668416-63.992001-63.992001l0-319.960005c0-35.323585 28.668416-63.992001 63.992001-63.992001L895.952006-79.942007c35.323585 0 63.992001 28.668416 63.992001 63.992001l0 319.960005C959.944007 339.333583 931.275591 368.002 895.952006 368.002z"  horiz-adv-x="1024" />

    
    <glyph glyph-name="huidanjichu" unicode="&#58907;" d="M251.008244 184.111463l0-49.71306 125.222858 0c-0.621535 8.201585-0.940208 16.49196-0.940208 24.854097 0 8.367003 0.313808 16.652513 0.940208 24.858963L251.008244 184.111463 251.008244 184.111463zM443.713248 358.104741 251.008244 358.104741l0-49.711844 160.70508 0C420.874578 325.972239 431.597575 342.606507 443.713248 358.104741L443.713248 358.104741zM549.285387 880.093086 400.14864 880.093086 400.14864 830.376377 549.285387 830.376377 549.285387 880.093086ZM465.265062-64.453836 126.726811-64.453836c-13.730934 0-24.858963 11.128029-24.858963 24.854097L101.867848 805.52228c0 13.726069 11.128029 24.854097 24.858963 24.854097L245.93866 830.376377c15.712304-5.360282 29.609873-18.84917 29.923681-49.71306 0.550989-54.330176 74.56959-49.711844 74.56959-49.711844l248.5653 0c0 0 69.557173 0 74.56959 56.919702 2.262338 25.718894 15.066443 37.535355 29.439589 42.50885l119.697158 0c13.730934 0 24.857746-11.126812 24.857746-24.857746L847.561314 445.96496c17.579342-9.161254 34.21361-19.884251 49.711844-31.999924L897.273158 830.376377c0 27.457003-22.254841 49.716709-49.711844 49.716709L698.425783 880.093086c0 0-74.570806 14.708848-74.570806-49.716709 0-34.133333-20.933927-46.049531-40.617487-49.71306L373.775371 780.663317c-21.456941 2.666154-48.19632 13.289413-48.19632 49.71306 0 60.82406-74.570806 49.716709-74.570806 49.716709l-0.004865 0L101.867848 880.093086C74.410845 880.093086 52.156005 857.83338 52.156005 830.376377l0-894.830213c0-27.457003 22.254841-49.711844 49.711844-49.711844l424.302766 0C503.882933-100.097828 483.428233-83.382067 465.265062-64.453836L465.265062-64.453836zM698.425783 532.099234 251.008244 532.099234 251.008244 482.38739 698.425783 482.38739 698.425783 532.099234ZM847.561314 134.398404M698.425783 432.675547c-151.007433 0-273.423046-122.415612-273.423046-273.423046 0-151.002568 122.415612-273.418181 273.423046-273.418181 151.002568 0 273.418181 122.415612 273.418181 273.418181C971.843964 310.259934 849.428351 432.675547 698.425783 432.675547zM852.422909 42.535305c0 0-12.096212 19.53517-17.000378 26.384216-4.904166 6.84783-25.569288 32.362385-57.644623 47.151509-32.075335 14.787908-85.690321 12.154595-85.690321 12.154595l0-61.579389-147.761099 104.663555 147.761099 104.664771 0-62.144974c0 0 35.495602-2.672235 54.050425-6.513345 31.250676-6.47199 48.392146-21.865621 48.392146-21.865621 18.300614-10.910309 40.756146-40.338952 50.097414-75.764007C853.972489 74.256694 852.422909 42.535305 852.422909 42.535305z"  horiz-adv-x="1024" />

    
    <glyph glyph-name="jihua" unicode="&#59040;" d="M785.655172-127.982345c-131.636966 0-238.327172 106.690207-238.327172 238.327172C547.328 241.964138 654.018207 348.689655 785.655172 348.689655S1024 241.964138 1024 110.344828C1024-21.292138 917.274483-127.982345 785.655172-127.982345L785.655172-127.982345zM953.37931 101.517241c0 9.745655-7.927172 17.655172-17.655172 17.655172l-123.603862 0 0 105.913379c0 9.76331-7.891862 17.655172-17.637517 17.655172l-17.655172 0c-9.76331 0-17.655172-7.891862-17.655172-17.655172l0-141.241379c0-9.745655 7.891862-17.655172 17.655172-17.655172l17.655172 0 141.241379 0c9.745655 0 17.655172 7.927172 17.655172 17.655172L953.37931 101.517241 953.37931 101.517241zM517.755586 260.413793 194.206897 260.413793c-29.272276 0-52.983172-23.710897-52.983172-52.947862l0-17.655172c0-29.272276 23.710897-52.983172 52.983172-52.983172l283.365517 0c-0.388414-5.861517-0.900414-11.687724-0.900414-17.637517 0-76.870621 32.926897-145.831724 85.203862-194.224552L141.223724-75.034483C63.240828-75.034483 0-11.81131 0 66.206897L0 754.758621c0 78.018207 63.258483 141.223724 141.223724 141.223724l406.086621 0 0-105.913379c0-78.018207 63.223172-141.259034 141.223724-141.259034l141.241379 0 0-280.205241c-27.648 9.798621-57.273379 15.39531-88.275862 15.39531C647.238621 384.017655 564.683034 334.600828 517.755586 260.413793L517.755586 260.413793zM670.896552 454.638345C670.896552 483.87531 647.185655 507.586207 617.931034 507.586207L194.206897 507.586207c-29.272276 0-52.983172-23.710897-52.983172-52.947862l0-17.655172c0-29.272276 23.710897-52.947862 52.983172-52.947862l423.724138 0C647.185655 384.017655 670.896552 407.693241 670.896552 436.965517L670.896552 454.638345 670.896552 454.638345zM794.500414 701.793103l-158.896552 0C616.094897 701.793103 600.275862 717.594483 600.275862 737.103448l0 158.896552 52.947862 0 176.551724-158.896552C829.793103 717.594483 813.991724 701.793103 794.500414 701.793103L794.500414 701.793103z"  horiz-adv-x="1024" />

    
    <glyph glyph-name="xingzhengquhuaguanli" unicode="&#59005;" d="M846.968028 833.364451 178.328501 833.364451c-63.819514 0-115.745141-51.925626-115.745141-115.745141L62.58336 48.996157c0-63.834864 51.925626-115.76049 115.745141-115.76049l668.639526 0c63.819514 0 115.745141 51.925626 115.745141 115.76049L962.713168 717.61931C962.713168 781.438824 910.787542 833.364451 846.968028 833.364451zM846.968028 769.010771c0.587378 0 1.1328-0.153496 1.716084-0.172939L439.753559 472.728834 172.245969 768.396787c2.018983 0.2415 3.998057 0.615007 6.082532 0.615007L846.968028 769.011794zM127.068024 47.695534c-0.01228 0.442068-0.132006 0.854461-0.132006 1.300622L126.936017 717.61931c0 1.518586 0.318248 2.948145 0.448208 4.432962l266.753413-294.823726L127.068024 47.695534zM898.359488 48.996157c0-28.343535-23.047926-51.40681-51.391461-51.40681L178.328501-2.410654c-2.499937 0-4.894474 0.39295-7.29822 0.738827l287.450804 408.505881 439.150832 317.991378c0.337691-2.376117 0.726547-4.738931 0.726547-7.205099L898.358465 48.996157zM807.328215 88.618573 496.560356 88.618573 496.560356 399.387455l199.328791 0 0-139.29551 111.440092 0L807.329239 88.618573zM528.736173 120.795413l246.415202 0 0 107.119693L663.712307 227.915106 663.712307 367.210615 528.736173 367.210615 528.736173 120.795413zM559.080272 336.87061l46.432519 0 0-46.432519-46.432519 0 0 46.432519ZM559.080272 244.005572l46.432519 0 0-46.432519-46.432519 0 0 46.432519Z"  horiz-adv-x="1024" />

    
    <glyph glyph-name="jiaose" unicode="&#59015;" d="M533.55 43.756 608 352 512 448 416 352 490.45 43.756 319.924 384C192 384 128 298.014 128 192L128-64 896-64 896 192C896 298.014 832 384 704.078 384L533.55 43.756ZM320 640C320 746.04 405.962 832 512 832 618.038 832 704 746.04 704 640 704 533.962 618.038 448 512 448 405.962 448 320 533.962 320 640"  horiz-adv-x="1024" />

    
    <glyph glyph-name="jihua-copy" unicode="&#58884;" d="M888.307-63.372h-752.608c-23.985 0-43.422 18.792-43.422 41.972v727.514c0 23.185 19.436 41.978 43.422 41.978h72.366v-41.978c0-46.36 38.884-83.939 86.838-83.939 47.96 0 86.838 37.579 86.838 83.939v41.978h43.422v-41.978c0-46.36 38.884-83.939 86.838-83.939 47.965 0 86.838 37.579 86.838 83.939v41.978h43.422v-41.978c0-46.36 38.884-83.939 86.838-83.939 47.96 0 86.838 37.579 86.838 83.939v41.978h72.371c23.98 0 43.416-18.792 43.416-41.978v-727.513c0-23.181-19.436-41.973-43.416-41.973zM772.518 510.249h-521.032c-23.985 0-43.422-18.798-43.422-41.978s19.436-41.972 43.422-41.972h521.032c23.98 0 43.416 18.792 43.416 41.972s-19.436 41.978-43.416 41.978zM772.518 328.364h-521.032c-23.985 0-43.422-18.787-43.422-41.972 0-23.18 19.436-41.972 43.422-41.972l521.032 0c23.98 0 43.416 18.792 43.416 41.972 0.001 23.185-19.436 41.972-43.416 41.972zM779.76 146.483h-535.51c-19.99 0-36.186-15.659-36.186-34.977 0-19.313 16.196-34.977 36.186-34.977h535.51c19.979 0 36.175 15.664 36.175 34.977 0 19.318-16.196 34.977-36.175 34.977zM729.097 664.141c-23.975 0-43.422 18.792-43.422 41.972v83.945c0 23.185 19.447 41.978 43.422 41.978 23.98 0 43.422-18.792 43.422-41.978v-83.945c-0.001-23.179-19.442-41.972-43.422-41.972zM512 664.141c-23.98 0-43.416 18.792-43.416 41.972v83.945c0 23.185 19.436 41.978 43.416 41.978s43.422-18.792 43.422-41.978v-83.945c0-23.179-19.442-41.972-43.422-41.972zM294.903 664.141c-23.98 0-43.416 18.792-43.416 41.972l0 83.945c0 23.185 19.436 41.978 43.416 41.978 23.98 0 43.422-18.792 43.422-41.978v-83.945c0-23.179-19.442-41.972-43.422-41.972z"  horiz-adv-x="1024" />

    
    <glyph glyph-name="wenjianjiashouqizhuangtai" unicode="&#58939;" d="M916.711973 534.123113 105.269044 534.123113c-41.24845 0-43.345204-21.439288-41.015136-47.774073l30.29498-426.462858c2.097778-26.101471 8.156774-47.774073 49.171909-47.774073l736.870514 0c41.946344 0 46.841841 21.440311 49.172933 47.774073l28.196179 431.822936C960.059224 517.810588 957.960423 534.123113 916.711973 534.123113zM907.625014 647.61391c-1.165546 28.897144-10.486842 35.655058-35.190477 35.655058 0 0-282.909371 0-333.710384 0-50.805106 0-56.863079-0.699941-95.314833 40.548508-31.927153 34.489512-19.342534 34.023908-85.292572 34.023908-52.6665 0-175.47757 0-175.47757 0-40.550555 0-54.998615 3.495614-58.726519-38.685068-3.495614-38.917358-11.652388-133.298935-12.81691-147.746996l800.258193 0L907.625014 647.61391z"  horiz-adv-x="1024" />

    
    <glyph glyph-name="biangengcunguanyinxingqia0101" unicode="&#58885;" d="M924.444444 654.222222c0 23.552-19.114667 42.666667-42.666667 42.666667L113.777778 696.888889c-23.566222 0-42.666667-19.114667-42.666667-42.666667l0-71.111111 853.333333 0L924.444444 654.222222zM810.666667 398.222222c42.965333 0 82.389333-14.776889 113.777778-39.367111L924.444444 469.333333 71.111111 469.333333l0-327.111111c0-23.566222 19.100444-42.666667 42.666667-42.666667l551.367111 0C640.554667 130.944 625.777778 170.368 625.777778 213.333333 625.777778 315.448889 708.565333 398.222222 810.666667 398.222222zM711.111111 213.333333c0 41.813333 25.799111 77.539556 62.336 92.288l8.803556-21.148444L810.794667 312.888889l0.412444 0.412444 37.176889 37.034667-0.568889-0.113778 0.213333 0.213333C836.096 353.664 823.608889 355.555556 810.666667 355.555556c-78.535111 0-142.222222-63.687111-142.222222-142.222222 0-50.190222 26.069333-94.222222 65.351111-119.537778l31.160889 31.160889C732.984889 141.525333 711.111111 174.848 711.111111 213.333333zM887.537778 332.871111l-31.160889-31.160889C888.348444 285.141333 910.222222 251.818667 910.222222 213.333333c0-41.813333-25.799111-77.539556-62.336-92.288l-8.803556 21.148444L810.538667 113.777778l-0.412444-0.412444-37.176889-37.034667 0.568889 0.113778-0.213333-0.213333C785.237333 73.002667 797.724444 71.111111 810.666667 71.111111c78.535111 0 142.222222 63.687111 142.222222 142.222222C952.888889 263.523556 926.819556 307.555556 887.537778 332.871111z"  horiz-adv-x="1024" />

    
    <glyph glyph-name="zhifu" unicode="&#60280;" d="M1010.3 469.6 602.7 826.7c-24.8 20.1-56.4 32.1-90.7 32.1-34.1 0-65.4-11.9-90.1-31.6L14.5 470.5C5.6 460.3 0 447.1 0 432.4c0-26.7 18-48.9 42.4-55.7 0 0 5.9-2.3 14.4-2.3s120.1 0 120.1 0l0-372.1c0-53.5 40.3-93.1 93.6-93.1l483 0c53.4 0 93.6 39.6 93.6 93.1L847.1 374.4l117.8 0c0.4 0 0.8-0.1 1.1-0.1 0.4 0 0.8 0.1 1.1 0.1l1.4 0 0.1 0.1c30.8 1.4 55.4 26.7 55.4 57.9C1024 446.6 1018.7 459.5 1010.3 469.6zM644.7 185.5l-86.2 0 0-55.9c0-26.7-19.9-46.5-46.5-46.5-26.7 0-46.5 19.8-46.5 46.5l0 55.9-83.8 0c-21.3 0-33.9 17.8-33.9 39.2 0 21.4 12.6 35.3 33.9 35.3l83.8 0 0 46.5-83.8 0c-21.3 0-33.9 16.6-33.9 38 0 21.4 12.6 36.5 33.9 36.5l81.1 0L377.9 466c-15.2 15.2-15.2 39.9 0 55.2 15.2 15.2 39.8 15.2 55 0l78.4-78.6 78.7 78.9c15.2 15.2 39.8 15.2 55 0 15.2-15.2 15.2-40 0-55.2L560.2 381l82.2 0c21.3 0 33.9-15.1 33.9-36.5 0-21.4-12.6-38-33.9-38l0 0-83.8 0L558.6 260 640 260c21.3 0 36.2-10.9 36.2-38.8C676.2 199.8 666.1 185.5 644.7 185.5z"  horiz-adv-x="1024" />

    
    <glyph glyph-name="shujubiao" unicode="&#59249;" d="M0 832l0-960 960 0L960 832 0 832zM896-64 64-64 64 768l832 0L896-64zM832 0 832 704 128 704l0-704L832 0zM256 576l128 0 0-128L256 448 256 576zM576 448 448 448 448 576l128 0L576 448zM576 256 448 256 448 384l128 0L576 256zM256 384l128 0 0-128L256 256 256 384zM384 64 256 64l0 128 128 0L384 64zM576 64 448 64l0 128 128 0L576 64zM768 64l-128 0 0 128 128 0L768 64zM768 256l-128 0L640 384l128 0L768 256zM768 448l-128 0L640 576l128 0L768 448z"  horiz-adv-x="1024" />

    
    <glyph glyph-name="rizhi" unicode="&#58954;" d="M731.589 45.175h-466.486c-59.241 0-97.198 37.951-97.198 97.19v32.687c0 12.509 4.997 22.622 17.5 22.622 12.499 0 17.5-10.113 17.5-22.622v-32.687c0-34.278 27.916-62.198 62.201-62.198h466.484c34.273 0 62.194 27.919 62.194 62.198v153.189c0 12.506 10.105 17.494 22.615 17.494 12.501 0 12.382-4.997 12.382-17.494v-153.188c-0.001-59.238-37.965-97.191-97.191-97.191zM185.405 288.048c-12.504 0-17.5 10.116-17.5 22.619v132.876c0 12.506 4.997 22.619 17.5 22.619 12.499 0 17.5-10.115 17.5-22.619v-132.876c-0.001-12.501-5-22.619-17.5-22.619zM816.398 436.131c-12.509 0-22.615 10.116-22.615 22.619v150.096c0 34.281-27.919 62.198-62.194 62.198h-466.486c-34.281 0-62.198-27.916-62.198-62.198v-29.595c0-12.501 0.118-22.617-12.382-22.617-26.151 0-22.619 10.111-22.619 22.617v29.595c0 59.238 37.958 97.198 97.198 97.198h466.482c59.231 0 97.194-37.959 97.194-97.198v-150.1c0-12.499 0.12-22.615-12.383-22.615zM242.969 493.899h-122.2c-12.499 0-22.617 4.997-22.617 17.5 0 12.5 10.117 17.498 22.617 17.498h122.2c12.501 0 22.617-4.999 22.617-17.498s-10.115-17.5-22.617-17.5zM242.969 220.205h-122.2c-12.499 0-22.617 4.988-22.617 17.49 0 12.509 10.117 17.506 22.617 17.506h122.2c12.501 0 22.617-4.997 22.617-17.506 0-12.501-10.115-17.49-22.617-17.49zM819.667 296.348c-49.345 0-79.258 43.563-79.258 79.258 0 49.389 29.913 79.345 79.258 79.345 49.391 0 74.188-29.957 74.188-79.345 0.001-49.341-24.797-79.258-74.188-79.258zM819.667 419.96c-24.432 0-44.265-19.879-44.265-44.352 0-24.428 19.841-44.258 44.265-44.258 24.428 0 39.191 19.828 39.191 44.258 0 24.471-14.762 44.352-39.191 44.352zM519.452 522.959l-35.968-35.979 95.531-95.553-248.331-2.654-2.632-45.515 248.052 1.24-108.489-108.508 35.087-35.096 169.404 169.404-152.656 152.652z"  horiz-adv-x="1024" />

    
    <glyph glyph-name="shouye2" unicode="&#59026;" d="M490.666667 853.333333l-469.333333-469.333333 128 0 0-384c0-42.666667 42.666667-85.333333 85.333333-85.333333l85.333333 0 42.666667 0c25.6 0 42.666667 17.066667 42.666667 42.666667l0 42.666667 0 42.666667 0 128c0 25.6 17.066667 42.666667 42.666667 42.666667l128 0c25.6 0 42.666667-17.066667 42.666667-42.666667l0-85.333333 0-85.333333 0-42.666667c0-25.6 17.066667-42.666667 42.666667-42.666667l42.666667 0 85.333333 0c42.666667 0 85.333333 42.666667 85.333333 85.333333l0 384 128 0L490.666667 853.333333z"  horiz-adv-x="1024" />

    
    <glyph glyph-name="zhifu1" unicode="&#59136;" d="M978.418872-4.019291 978.418872 627.951081l-71.333652 0c0.717338-0.217964 1.468444-0.541329 2.190899-0.89437L210.518644 627.056712l0 0.89437-0.89437 0 0 63.331397 685.255972 0 0 80.706113c0 58.699913-60.604286 60.567447-60.604286 60.567447L171.371042 832.556039C52.058656 832.518177 45.530986 708.687894 45.530986 708.687894l0-711.810768c0-62.329581 62.434981-61.433164 62.434981-61.433164L917.203672-64.556039C982.477304-64.556039 978.418872-4.019291 978.418872-4.019291L978.418872-4.019291 978.418872-4.019291zM679.008688 194.945203c-63.549362 0-115.143437 50.744731-115.143437 113.319905 0 62.547545 51.594075 113.214505 115.143437 113.214505 63.547315 0 115.149577-50.66696 115.149577-113.214505C794.158265 245.689934 742.594889 194.945203 679.008688 194.945203L679.008688 194.945203 679.008688 194.945203zM678.112272 366.545466c-33.224706 0-60.137659-26.524097-60.137659-59.137889 0-32.689517 26.912953-59.137889 60.137659-59.137889 33.230845 0 60.145845 26.448372 60.145845 59.137889C738.258117 340.022393 711.343117 366.545466 678.112272 366.545466L678.112272 366.545466 678.112272 366.545466zM678.112272 366.545466"  horiz-adv-x="1024" />

    
    <glyph glyph-name="c-project-copy" unicode="&#58889;" d="M942.080 896h-860.16c-45.244 0-81.92-36.676-81.92-81.92v-860.16c0-45.244 36.676-81.92 81.92-81.92h860.16c45.244 0 81.92 36.676 81.92 81.92l0 860.16c0 45.244-36.676 81.92-81.92 81.92zM270.336 99.328h-122.88v122.88h122.88v-122.88zM270.336 322.56h-122.88v122.88h122.88v-122.88zM270.336 545.792h-122.88v122.88h122.88v-122.88zM874.496 119.808h-532.48v81.92h532.48l-0-81.92zM874.496 343.040h-532.48v81.92h532.48l-0-81.92zM874.496 566.272h-532.48v81.92h532.48l-0-81.92z"  horiz-adv-x="1024" />

    
    <glyph glyph-name="yinxing" unicode="&#58966;" d="M875.296 61.2l0 43.216-36.96 0L838.336 525.808l50.624 0 0 49.344-349.776 130.976L484.48 706.128 134.704 575.152l0-49.344 50.64 0 0-421.392L148.352 104.416l0-43.216L89.2 61.2l0-43.232 845.264 0 0 43.232L875.296 61.2zM618.256 349.2l0-38.704-83.184 0 0-44.064 83.184 0 0-38.704-83.184 0 0-96.256-46.448 0 0 96.256-83.2 0 0 38.704 83.2 0 0 44.064-83.2 0 0 38.704 78.112 0-126.992 162.384 56.736 0 98.544-123.536 98.56 123.536 56.736 0-127.008-162.384L618.256 349.2z"  horiz-adv-x="1024" />

    
    <glyph glyph-name="zhifu2" unicode="&#58908;" d="M958.506558 739.619827c-83.960968 0-139.93394 55.973979-139.93394 139.93394L510.71775 851.565771 202.860867 879.553767c0-83.959961-55.971965-139.93394-139.932933-139.93394-55.973979-643.697734 447.789816-867.590628 447.789816-867.590628S1014.480537 95.922093 958.506558 739.619827zM603.766736 460.149662l111.348869 0 0-99.657082L568.175856 360.49258l0-43.425344 146.940756 0 0-100.429352L568.175856 216.637884l0-120.715791L453.091495 95.922093 453.091495 216.636877l-152.339599 0 0 100.429352 152.339599 0 0 43.425344-152.339599 0 0 99.657082 115.373333 0L257.614518 732.432782l131.277869 0c0 0 100.673015-185.858338 123.597456-231.78777 7.314919 14.774827 124.463365 231.78777 124.463365 231.78777l126.866767 0L603.766736 460.149662z"  horiz-adv-x="1024" />

    
    <glyph glyph-name="mima" unicode="&#58902;" d="M815.393403 473.772606l-49.073672 0L766.319731 580.539258c0 138.38886-112.600521 250.918773-250.936169 250.918773l-6.840802 0c-138.26504 0-250.936169-112.529913-250.936169-250.918773l0-106.766652-49.002041 0c-18.473747 0-33.703613-15.158235-33.703613-33.70259L174.900937-29.685857c0-18.561751 15.228843-33.772174 33.703613-33.772174l606.78783 0c18.472723 0 33.70259 15.210423 33.70259 33.772174L849.09497 440.07104C849.095993 458.615395 833.866127 473.772606 815.393403 473.772606L815.393403 473.772606zM572.63652 87.21562 451.22124 87.21562l29.894867 110.098537c-21.363564 11.033287-36.028565 33.171494-36.028565 58.908668 0 37.032428 29.964452 66.87613 66.910922 66.87613 36.945447 0 66.911946-29.842679 66.911946-66.87613 0-25.737174-14.665001-47.87538-36.028565-58.908668L572.63652 87.21562 572.63652 87.21562zM342.85209 473.772606l0 102.008278c0 93.969185 75.865875 170.522722 169.147398 170.522722 93.2805 0 169.147398-76.553537 169.147398-170.522722l0-102.008278L342.85209 473.772606 342.85209 473.772606z"  horiz-adv-x="1024" />

    
    <glyph glyph-name="fafang1" unicode="&#58947;" d="M921.6 788.48 102.4 788.48c-56.32 0-102.4-46.08-102.4-102.4l0-665.6c0-56.32 46.08-102.4 102.4-102.4l819.2 0c56.32 0 102.4 46.08 102.4 102.4l0 665.6C1024 742.4 977.92 788.48 921.6 788.48zM921.6 20.48 102.4 20.48l0 665.6 819.2 0L921.6 20.48zM563.2 122.88l307.2 256-307.2 256 0-153.6L256 481.28l0-204.8 307.2 0L563.2 122.88z"  horiz-adv-x="1024" />

    
    <glyph glyph-name="zhangdan" unicode="&#58977;" d="M272.047944 168.425233C250.618655 168.425233 233.213788 150.944597 233.213788 129.377451 233.213788 107.838976 250.618655 90.352196 272.047944 90.352196L414.722403 90.352196C412.104998 107.417088 410.743828 124.893628 410.743828 142.692693 410.743828 151.352115 411.069856 159.927603 411.700518 168.425233L272.047944 168.425233 272.047944 168.425233ZM530.646163 402.722133 272.047944 402.722133C250.618655 402.722133 233.213788 385.236412 233.213788 363.673361 233.213788 342.108228 250.618655 324.625579 272.047944 324.625579L463.066419 324.625579C481.551258 354.002261 504.380436 380.329711 530.646163 402.722133L530.646163 402.722133ZM766.383623 778.058001 805.22185 778.058001C848.068202 778.058001 882.950274 743.031194 882.950274 699.947076L882.950274 456.298564C910.987766 444.267315 937.0752 428.548881 960.62877 409.752474L960.62877 699.954244C960.62877 786.216721 891.040891 856.147422 805.221854 856.147422L766.383623 856.147422C744.896259 856.147422 727.514829 838.655522 727.514829 817.106807 727.514825 795.558059 744.89728 778.058001 766.383623 778.058001L766.383623 778.058001ZM380.930492 778.058001 575.170546 778.058001C607.400571 778.058001 633.45438 804.288137 633.45438 836.633259 633.45438 868.965035 607.343517 895.19517 575.170546 895.19517L380.930492 895.19517C348.731034 895.19517 322.610999 868.965035 322.610999 836.633259 322.610999 804.295305 348.730013 778.058001 380.930492 778.058001L380.930492 778.058001ZM455.883592-27.314381 155.506763-27.314381C112.628828-27.314381 77.798721 7.713451 77.798721 50.788352L77.798721 699.954244C77.798721 743.03017 112.629849 778.056977 155.506763 778.056977L194.37454 778.056977C215.802808 778.056977 233.213788 795.557035 233.213788 817.105783 233.213788 838.654498 215.803829 856.153566 194.37454 856.153566L155.506763 856.153566C69.660215 856.153566 0.06928 786.216721 0.06928 699.954244L0.06928 50.796544C0.06928-35.476173 69.659197-105.403802 155.506763-105.403802L517.365569-105.403802C493.286274-82.604851 472.518212-56.306074 455.883592-27.314381L455.883592-27.314381ZM272.047944 558.297873 688.646031 558.297873C710.104866 558.297873 727.514825 575.780557 727.514825 597.338487 727.514825 618.886178 710.103849 636.385246 688.646031 636.385246L272.047944 636.385246C250.618655 636.385246 233.213788 618.887202 233.213788 597.338487 233.213788 575.780557 250.618655 558.297873 272.047944 558.297873L272.047944 558.297873ZM749.892659 413.053645C601.321148 413.053645 480.879841 292.008107 480.879841 142.693717 480.879841-6.61859 601.321148-127.66109 749.892659-127.66109 898.464171-127.66109 1018.906487-6.61859 1018.906487 142.693717 1018.906487 292.008107 898.464171 413.053645 749.892659 413.053645L749.892659 413.053645ZM926.184789 159.734067C926.184789 152.080145 919.681539 145.711275 911.875178 145.711275L911.875178 145.703083 772.658664 145.703083 772.658664 87.034641 911.876195 87.034641C919.682557 87.034641 926.185813 80.660651 926.185813 73.009801L926.185813 47.501517C926.185813 39.855787 919.682557 33.470532 911.876195 33.470532L771.360662 33.470532 771.360662-20.088457C771.360662-27.747499 764.856378-34.119441 757.052054-34.119441L731.026773-34.119441C723.223467-34.119441 716.720203-27.747499 716.720203-20.088457L716.720203 33.470532 587.913196 33.470532C580.108868 33.470532 573.606625 39.855787 573.606625 47.501517L573.606625 73.009801C573.606625 80.661675 580.108868 87.034641 587.913196 87.034641L716.721224 87.034641 716.721224 145.703083 587.913196 145.703083C580.108868 145.703083 573.606625 152.081169 573.606625 159.734067L573.606625 185.240303C573.606625 192.890129 580.108868 199.271287 587.913196 199.271287L675.084237 199.271287 626.818669 277.332036C621.957775 285.857314 621.736687 302.40413 636.100311 310.66624 654.427228 321.350007 671.303315 308.198571 671.303315 308.198571L742.739371 199.271287 746.643572 199.271287 814.615569 308.198571C821.56814 319.883708 839.406015 324.123853 854.840439 313.129847 873.648251 298.988271 862.388016 281.089877 862.388016 281.089877L812.996628 199.271287 911.875178 199.271287C919.681539 199.271287 926.184789 192.893201 926.184789 185.240303L926.184789 159.734067 926.184789 159.734067Z"  horiz-adv-x="1024" />

    
    <glyph glyph-name="jiaotongtubiaofafang" unicode="&#59546;" d="M896 384l0-448L64-64 64 384l128 0 0-64L128 320l0-320 704 0L832 320l-64 0L768 384 896 384zM176.768 611.648C229.888 552.576 320 260.224 320 128l64 0c0 91.2-68.864 417.664-161.92 523.712l87.808-11.456 8.256 63.488L129.28 728.384 102.656 547.584l63.36-9.28L176.768 611.648zM738.496 651.328C650.496 546.368 576 228.8 576 128l64 0c0 137.984 101.184 442.176 150.144 489.024l16.448-78.336 62.656 13.12-37.12 176.32-186.048-24.384 8.384-63.488L738.496 651.328zM448 717.184 448 64l64 0L512 712.192l43.328-41.344 44.224 46.272L478.784 832.32 354.944 718.528 398.208 671.36 448 717.184z"  horiz-adv-x="1024" />

    
    <glyph glyph-name="baobiao1" unicode="&#59127;" d="M930.440533-128 93.559467-128c-35.5328 0-64.3584 28.8256-64.3584 64.3584L29.201067 831.6416C29.201067 867.157333 58.026667 896 93.559467 896l836.864 0c35.5328 0 64.3584-28.842667 64.3584-64.3584l0-895.266133C994.798933-99.1744 965.973333-128 930.440533-128L930.440533-128zM930.440533 767.965867 93.559467 767.965867l0-831.982933 836.864 0L930.423467 767.965867 930.440533 767.965867zM866.065067 255.982933 157.934933 255.982933 157.934933 703.965867l708.130133 0L866.065067 255.982933 866.065067 255.982933zM533.8112 438.3744l-126.481067 125.713067c-0.9728 1.416533-0.648533 3.345067-1.860267 4.573867-6.4512 6.382933-14.813867 8.891733-23.2448 8.4992-8.362667 0.375467-16.725333-2.116267-23.159467-8.4992-1.28-1.211733-0.904533-3.157333-1.928533-4.573867l-126.498133-125.713067c-12.032-12.032-12.032-31.488 0-43.451733 12.100267-11.9808 31.658667-11.9808 43.7248 0l107.8784 107.246933 107.963733-107.246933c12.032-11.9808 31.607467-11.9808 43.639467 0C545.928533 406.8864 545.928533 426.325333 533.8112 438.3744L533.8112 438.3744zM793.002667 629.486933c-0.7168 0.9728-0.392533 2.338133-1.297067 3.2256-1.792 1.792-4.437333 1.416533-6.570667 2.696533l-0.0512 0c-2.2016 1.211733-4.386133 2.116267-6.826667 2.833067 0 0 0 0-0.068267 0s-0.068267 0-0.136533 0c-2.7648 0.768-5.5296 1.7408-8.5504 1.7408-0.580267 0-1.041067-0.256-1.553067-0.324267-0.768 0-1.416533 0.443733-2.2528 0.324267l-124.945067 0c-17.7664 0-32.187733-14.2848-32.187733-32 0-17.698133 17.322667-30.0032 64.3584-31.982933l18.039467 0-138.478933-137.6256c-12.032-12.032-12.032-31.488 0-43.451733 12.117333-11.9808 31.675733-11.9808 43.7248 0l141.1072 140.270933 0-54.9888c0-17.8176 14.4384-32.187733 32.2048-32.187733s32.187733 14.370133 32.187733 32.187733l0 127.607467c0 0.068267 0 0.068267 0 0.136533l0 0.0512c0 4.2496-0.904533 8.2432-2.4576 11.844267-1.211733 3.089067-3.157333 5.597867-5.2224 8.123733C793.634133 628.462933 793.4464 629.026133 793.002667 629.486933L793.002667 629.486933zM608.5632 128.017067 157.934933 128.017067 157.934933 192l450.628267 0L608.5632 128.017067 608.5632 128.017067zM801.6896-0.034133 157.934933-0.034133l0 64.068267 643.754667 0L801.6896-0.034133 801.6896-0.034133z"  horiz-adv-x="1024" />

    
    <glyph glyph-name="renyuanxinxi" unicode="&#58894;" d="M906.423141 697.286216 752.647849 697.286216 752.647849 754.258789c0 17.881253-14.658861 32.385595-32.743752 32.385595-18.074657 0-32.733519-14.504342-32.733519-32.385595l0-56.973596L545.378202 697.285193 545.378202 754.258789c0 17.881253-14.658861 32.385595-32.738635 32.385595-18.08489 0-32.743752-14.504342-32.743752-32.385595l0-56.973596L338.109578 697.285193 338.109578 754.258789c0 17.881253-14.658861 32.385595-32.743752 32.385595-18.079774 0-32.738635-14.504342-32.738635-32.385595l0-56.973596L117.570719 697.285193c-29.616528 0-53.707203-22.471804-53.707203-50.081629l0-607.167476c0-27.614941 24.089651-50.081629 53.707203-50.081629l788.852422 0c29.616528 0 53.711296 22.466688 53.711296 50.081629L960.134437 647.203564C960.13546 674.814412 936.045809 697.286216 906.423141 697.286216zM900.891148 48.561251 123.107829 48.561251 123.107829 638.679423l149.518339 0 0-56.066947c0-17.890462 14.658861-32.390711 32.738635-32.390711 18.08489 0 32.743752 14.499226 32.743752 32.390711l0 56.066947 141.786237 0 0-56.066947c0-17.890462 14.658861-32.390711 32.743752-32.390711 18.079774 0 32.738635 14.499226 32.738635 32.390711l0 56.066947 141.791353 0 0-56.066947c0-17.890462 14.658861-32.390711 32.738635-32.390711 18.08489 0 32.743752 14.499226 32.743752 32.390711l0 56.066947 148.239206 0L900.890124 48.561251zM399.774009 271.181515c-0.901533 1.787716-1.697665 5.935176-2.022053 10.05296 5.52176 6.094812 18.826787 22.586414 23.856337 43.972491 5.064342 2.359744 9.366322 7.498788 12.035104 14.684444 3.764744 10.103102 4.027733 24.040533-3.236718 33.067116 0 0.109494 0 0.293689 0.024559 0.423649 1.384533 12.637832 5.083785 46.287209-14.957667 68.355831-11.920494 13.110599-29.890774 19.763113-53.432956 19.763113-23.547299 0-41.512463-6.642281-53.417607-19.747763-20.027126-22.053272-16.392342-55.673997-14.997576-68.37118 0.019443-0.11461 0.034792-0.293689 0.034792-0.437975-7.2798-9.041934-7.005554-22.984481-3.216251-33.112142 2.65855-7.175423 6.951319-12.283768 12.050454-14.653745 4.974291-21.406542 18.314111-37.862329 23.835871-43.962258-0.298805-4.088108-1.12052-8.245801-2.006703-10.05296-23.925922-4.734838-111.751177-51.909254-111.751177-97.709369l0-7.578606 298.947649 0 0 7.578606C511.519046 219.251795 423.693792 266.431328 399.774009 271.181515zM566.654784 430.893007c0-13.244652 10.855232-23.985274 24.24417-23.985274l195.572234 0c13.394055 0 24.249287 10.740622 24.249287 23.985274 0 13.249769-10.855232 23.990391-24.249287 23.990391L590.899978 454.883397C577.510016 454.883397 566.654784 444.142775 566.654784 430.893007zM590.899978 289.196821l146.68071 0c13.388938 0 24.249287 10.740622 24.249287 23.990391 0 13.244652-10.859325 23.990391-24.249287 23.990391l-146.68071 0c-13.388938 0-24.24417-10.745738-24.24417-23.990391C566.654784 299.936419 577.510016 289.196821 590.899978 289.196821zM786.472212 218.5846 590.899978 218.5846c-13.388938 0-24.24417-10.740622-24.24417-23.990391s10.855232-23.985274 24.24417-23.985274l195.572234 0c13.394055 0 24.249287 10.735505 24.249287 23.985274S799.866267 218.5846 786.472212 218.5846z"  horiz-adv-x="1024" />

    
    <glyph glyph-name="hujiqianru" unicode="&#58993;" d="M5.418658 436.306309c5.032127 20.132122 19.624574 32.743146 34.645096 45.471575 58.358951 49.454289 116.372914 99.316783 174.527762 149.013106 2.147595 1.835119 4.421625 3.527547 8.086445 6.43556 13.302806-21.479562 26.719405-42.505763 39.42074-63.954619 5.256099-8.877569 8.771002-18.76662 13.474397-27.994595 2.653336-5.200106 1.291447-8.1605-3.056123-11.821706-30.106066-25.33584-59.800314-51.164779-89.975016-76.419339-6.545739-5.476457-9.477234-10.985427-9.459171-19.807003 0.292608-148.324936 0.207715-296.649872 0.207715-444.974808 0-3.417367 0-6.832928 0-10.86441 99.343877 0 198.019452 0 297.959381 0-9.950463 10.001037-16.835772 21.156249-13.924146 34.708313 2.129533 9.910726 5.702235 20.070711 11.017939 28.635803 18.878606 30.41493 45.926742 53.086596 74.004424 75.521648 25.60858-16.537745 52.606142-28.679153 83.333547-29.773722 30.84481-1.099988 57.999513 9.103346 83.79594 29.246306 22.590387-22.49827 45.437257-44.87191 67.726005-67.781998 4.45775-4.582379 7.342282-10.983621 9.993812-16.971238 9.218944-20.832935 5.881051-34.072524-13.337125-53.518283 25.572455 0 50.476609 0 76.730009 0 0 3.25842 0 6.580058 0 9.898083 0 149.269589-0.046962 298.539178 0.16256 447.808767 0.007225 6.973813-2.026578 11.561611-7.29532 16.04826-108.317175 92.270721-216.531395 184.660653-324.593893 277.227594-5.528838 4.737714-8.87215 4.327702-14.099349-0.167978-25.055876-21.555423-50.435066-42.73154-75.718526-64.017836-1.649078-1.388983-3.469748-2.57025-4.528192-3.348731-26.542395 25.572455-52.719934 50.790891-79.722915 76.804064 11.675403 10.073286 24.600709 21.297134 37.609102 32.425252 29.421509 25.173281 58.532348 50.727674 88.537266 75.185691 9.238813 7.531935 20.962983 12.022197 31.549235 17.903247 6.300093 0 12.600187 0 18.90028 0 10.346025-5.673335 22.030459-9.769841 30.835779-17.256621 142.405955-121.060053 284.43441-242.559018 426.574851-363.929741 16.438403-14.037938 34.307332-26.878352 39.660967-49.734253 0-6.928658 0-13.860928 0-20.791392-1.226423-3.160884-2.46549-6.316349-3.677463-9.484458-11.539936-30.143997-45.484219-44.351719-74.454172-30.741855-6.872665 3.227714-12.981299 8.075607-20.175471 12.643536 0-4.34757 0-7.783 0-11.218429 0-140.738814-0.249258-281.477629 0.263708-422.212831 0.077667-21.093031-6.89434-35.741471-26.69773-43.616588-254.521609 0-509.043219 0-763.561216 0-19.826871 7.862473-26.777204 22.530782-26.699536 43.612975 0.509354 140.733396 0.263708 281.470404 0.263708 422.205606 0 3.583539 0 7.163466 0 12.177532-4.251841-3.308994-6.87989-5.456589-9.610894-7.461493-24.550135-18.024264-57.074729-14.456981-75.933466 9.31648-5.664304 7.139986-8.584961 16.458272-12.760941 24.777719C5.418658 422.445381 5.418658 429.377652 5.418658 436.306309zM507.181006 598.073131c-0.937428-5.232618-1.298672-8.579542-2.147595-11.796419-17.128379-64.97152-34.294689-129.934009-51.497123-194.883855-3.625082-13.687531-5.758228-14.679146-18.015233-7.949172-58.971259 32.369259-117.902782 64.814379-176.828885 97.266724-2.720167 1.499162-5.263324 3.323444-9.657855 6.126696 12.06374 5.26513 22.696954 10.085929 33.474665 14.556323 13.127603 5.445752 25.572455 11.88673 28.984404 27.120385 1.378145 6.148371 1.732164 13.467172-0.260096 19.288618-20.632445 60.298831-54.79528 110.797114-108.550177 146.66502C167.539499 717.91218 129.784093 727.756076 87.975531 716.259489c-0.827249-0.227584-1.806219 0.09573-4.506518 0.290801 28.780301 13.624313 56.951906 23.661475 86.974886 27.750756 84.894121 11.556192 149.562196-25.099226 203.127441-86.620867 15.463045-17.75875 28.937442-37.274951 42.926612-56.278186 18.150699-24.653089 30.96402-28.419057 58.98029-16.552195C485.276983 589.00049 495.119073 593.046422 507.181006 598.073131zM733.64119 232.15113c-1.631016-39.182319-15.948918-73.69556-52.1004-96.052945-45.793082-28.319715-109.689902-13.230558-138.972332 32.101939-29.479308 45.634135-24.494142 106.821625 11.96801 146.89441 53.245544 58.517898 146.973884 35.68909 172.631231-42.144519 2.348085-7.12373 3.930334-14.556323 5.191075-21.960016C733.30704 245.448517 733.175186 239.715577 733.64119 232.15113z"  horiz-adv-x="1024" />

    
    <glyph glyph-name="hujiguanli" unicode="&#59009;" d="M464.960627 843.746071c26.116127-9.824028 44.180128-30.747274 64.808961-47.888297 102.690801-85.327614 204.886699-171.25128 307.259605-256.960006 15.018715-12.576706 30.001305-25.196762 45.1013-37.679544 23.056391-19.055615 27.138447-47.895521 9.73191-69.561124-17.67747-22.006978-47.505378-24.701857-70.827284-6.394017-1.159593 0.912141-2.310155 1.838731-4.88763 3.886984 0-23.88364 0-46.461383 0-68.500873-21.031619-3.65037-40.771792-7.073155-61.745612-10.710881 0 2.696686 0 5.806996 0 8.917305 0 38.293659 0.140885 76.589124-0.21494 114.87917-0.036124 3.86531-2.010322 8.964267-4.867761 11.366539-95.724213 80.506814-191.665172 160.755338-287.58265 241.030956-2.075346 1.737583-4.259065 3.348731-7.029806 5.521613-16.794229-14.007232-33.639031-28.01627-50.438678-42.075882-80.665761-67.505646-161.31346-135.031161-242.000896-202.51152-4.000776-3.345118-6.944914-6.433754-6.934077-12.551419 0.222165-130.558961 0.167978-261.117923 0.180622-391.676884 0-1.770095 0.151722-3.54019 0.263708-5.987618 44.73825 0 89.167636 0 134.102764 0-9.155726 2.367954-18.067613 3.950202-26.459309 6.966588-30.028399 10.804805-39.023371 34.636064-23.309262 62.457263 15.728559 27.841067 40.029436 47.830498 63.819152 68.323864 7.318801 6.303706 12.544194 6.477103 20.874478 1.551543 35.167093-20.789586 72.469137-29.37816 112.252927-14.590641 10.313513 3.834604 19.955113 9.719267 29.44499 15.430533 4.210298 2.535932 6.825703 3.558252 10.848154-0.178816 16.125927-14.973559 33.102584-29.076521 48.614397-44.647939 8.14605-8.176756 15.248105-18.049551 20.49156-28.34139 12.126957-23.80236 4.053156-45.303597-21.024395-54.878366-13.599026-5.194687-28.453375-7.10928-42.747796-10.474267-1.365502-0.323313-2.777966-0.455167-4.073025-2.212619 36.640968 0 73.281936 0 109.008957 0 6.984651-20.910603 13.59722-40.713993 20.392218-61.059249-3.321638 0-6.594507 0-9.872796 0-155.584132 0-311.171877 0.249258-466.754202-0.290801-21.419957-0.074055-37.79153 12.119733-37.632583 37.625358 0.755 121.807828 0.337763 243.6283 0.337763 365.441547 0 3.234939 0 6.469878 0 11.043226-3.424592-2.413109-5.787127-4.033288-8.100894-5.711266-28.415445-20.608964-65.863793-8.597605-76.876313 24.649477C8.554255 449.647046 7.857055 451.2889 7.224878 452.952428c0 6.029161 0 12.060127 0 18.091094 4.986972 19.098965 20.005687 29.947119 34.049043 41.69477C155.134383 607.998307 268.794356 703.498548 382.911301 798.451505c19.671536 16.367961 36.823396 36.548851 62.148399 45.294565C451.692138 843.746071 458.326382 843.746071 464.960627 843.746071zM777.958591-69.915595c-2.978456 11.0938-5.982199 22.180375-8.902856 33.288625-0.379306 1.437751-0.254677 3.003743-0.493098 4.488455-2.434784 15.054839-9.692174 22.509107-24.797587 24.857192-1.941686 0.299832-4.477618-1.112631-6.282031-2.382403-10.347831-7.270033-20.684825-14.568966-30.768949-22.20205-6.278419-4.755776-11.758489-5.033934-17.612446 0.628564-12.338285 11.942723-25.153412 23.399573-37.231602 35.591555-8.888406 8.96788-8.612054 12.289517-0.527416 22.37364 6.408467 7.994327 12.84222 15.970592 19.46924 23.780685 3.240358 3.816542 2.94775 6.890727 1.488325 11.879505-4.584185 15.645473-13.75978 22.81797-30.22347 22.160507-7.68727-0.307057-15.464851 2.077152-23.226176 3.036255-8.606636 1.062057-12.741072 5.559544-12.611024 14.429887 0.225777 15.676179 0.173397 31.352357 0.021675 47.030342-0.084892 8.660822 3.60702 13.440079 12.455689 14.518392 13.140247 1.60031 26.300362 3.254807 39.281661 5.749197 3.285513 0.633983 6.527677 4.089281 8.796289 7.017163 9.896276 12.759134 6.363311 23.619932-4.757582 33.87384-5.487295 5.064639-9.54587 11.644697-14.596059 17.224109-4.163336 4.604053-4.781063 9.45014-0.547284 13.644182 14.10838 13.969301 28.456988 27.701988 42.980798 41.234184 5.433108 5.059221 11.245522 4.166948 17.081417-0.366663 9.513358-7.383825 19.131477-14.688177 29.20115-21.264622 2.823121-1.84415 7.560835-1.93988 11.119087-1.262547 13.942208 2.660561 21.326033 10.459817 21.091225 25.724178-0.135466 8.861313 2.655143 17.791262 4.360214 26.64535 1.244485 6.457235 5.019484 9.742748 12.011359 9.657855 18.385508-0.225777 36.780047-0.140885 55.170973-0.054187 7.320607 0.034318 11.054063-3.623276 12.112508-10.642245 1.795382-11.895761 4.006195-23.740949 5.420465-35.680059 0.756806-6.359699 3.460716-9.294805 9.414016-12.27868 12.094446-6.059866 21.546392-4.865955 31.334295 4.394532 6.500584 6.151983 14.596059 10.602508 21.839 16.001298 5.194687 3.876147 10.170822 3.605214 14.684564-0.646627 13.156503-12.396084 26.424991-24.696439 39.082977-37.589233 7.734232-7.875117 7.378407-11.599541 0.475036-20.289263-6.934077-8.727652-14.240234-17.177147-20.798617-26.173926-1.645466-2.257774-1.905562-6.296481-1.360083-9.251456 3.350537-18.157924 15.873057-23.777073 32.795527-23.968532 7.152629-0.08128 14.4046-1.4522 21.382026-3.171721 3.747905-0.924784 7.006325-3.832798 10.485104-5.844926 0-21.109287 0-42.214961 0-63.324248-3.774999-2.068121-7.329639-5.082702-11.366539-6.002067-8.460332-1.927236-17.202434-3.964652-25.778364-3.760549-15.372734 0.36305-23.784298-6.917821-26.977694-21.084-0.708038-3.131985-0.487679-7.584316 1.278803-9.970331 7.320607-9.899889 15.302291-19.32113 23.233401-28.753208 3.733456-4.437881 5.583024-9.208107 1.107213-13.617089-14.527423-14.307064-29.300492-28.373902-44.223477-42.267342-4.90208-4.56251-10.356862-3.63592-15.553356 0.312476-10.049805 7.63489-20.036392 15.379959-30.432992 22.519944-2.367954 1.625598-6.459041 1.802607-9.486265 1.226423-14.516586-2.774353-23.235207-10.627795-21.945566-26.672443 0.187847-2.337248-0.294414-4.846087-0.995227-7.112892-2.864664-9.24965-5.935237-18.437888-8.928143-27.651414C823.789604-69.915595 800.872291-69.915595 777.958591-69.915595zM812.004022 60.305604c37.885453-0.070443 68.231746 28.413638 68.596603 64.380887 0.355825 35.627679-30.187346 65.166592-67.754904 65.52603-37.26592 0.354019-68.121567-28.767657-68.524354-64.673494C743.920385 89.701826 774.346152 60.37424 812.004022 60.305604zM496.464706 329.605701c-1.920011-41.18361-16.606382-73.845477-52.564599-94.178089-43.737604-24.732563-103.613779-9.334542-130.625792 33.109809-30.423961 47.805211-19.263331 113.372783 25.012527 146.950403 57.983257 43.976025 141.757522 9.625344 155.504658-63.855277C495.223834 343.977789 495.693451 336.142409 496.464706 329.605701z"  horiz-adv-x="1024" />

    
    <glyph glyph-name="hujiqianchu" unicode="&#59012;" d="M7.224878 425.396744c4.775644 22.940793 22.709597 35.454282 39.032403 49.246574 135.780742 114.716611 271.56329 229.435027 407.349451 344.149832 7.584316 6.40666 15.112638 12.883763 22.812552 19.149539 19.745591 16.066322 48.132136 18.127219 67.604988 2.257774 43.923645-35.797464 86.8629-72.799675 130.84615-109.852462-26.444859-26.746498-45.30179-57.437779-55.201679-95.7495-36.743923 30.25237-71.909209 59.204262-107.78434 88.739562-20.316357-17.131992-40.546014-34.171866-60.755804-51.237027-89.0701-75.218203-178.080595-150.508655-267.316868-225.529981-6.654113-5.595668-9.659662-11.072125-9.641599-20.072517 0.316088-145.463884 0.223971-290.927769 0.223971-436.39346 0-3.805704 0-7.613215 0-12.110701 224.959215 0 449.35489 0 674.982407 0 0 3.395693 0 6.796804 0 10.196109 0 146.7463-0.068636 293.4926 0.196878 440.240707 0.01445 7.640308-2.691267 12.229912-8.232748 16.833965-38.4219 31.914092-76.628861 64.090085-115.778668 96.912705 22.328485 30.572071 46.981574 58.107886 80.812065 76.903406 29.213794-24.651283 58.337276-49.205031 87.433666-73.787677 30.828554-26.042072 61.375337-52.423714 92.561523-78.032293 13.944014-11.449625 25.700697-23.86919 30.174702-41.859136 0-6.408467 0-12.816933 0-19.2254-0.736938-2.082571-1.528062-4.150692-2.201782-6.253132-9.007616-28.054201-37.336363-44.794243-65.79335-37.296626-10.378537 2.736422-19.73656 9.352604-30.015755 14.420856 0-3.066961 0-6.50239 0-9.936013 0-138.927176-0.22939-277.852546 0.242033-416.777916 0.072249-20.955758-7.398275-34.982859-27.19444-42.092138-253.134433 0-506.267059 0-759.39788 0-19.779909 7.118311-27.270301 21.127349-27.198053 42.092138 0.475036 138.934401 0.245646 277.868802 0.245646 416.803203 0 3.583539 0 7.170691 0 12.195594-4.560704-3.451685-7.279064-5.662498-10.150953-7.658371-19.133283-13.297388-39.227474-14.397375-59.706391-3.737068C19.922601 375.974967 12.042065 390.05806 7.224878 406.171344 7.224878 412.578004 7.224878 418.986471 7.224878 425.396744zM766.624564 861.808266c21.981691-3.83641 43.929064-7.880536 65.954104-11.465881 44.783405-7.291708 89.613772-14.289002 134.408015-21.521105 10.707269-1.728552 12.853058-4.833443 9.058191-13.869959-26.968663-64.182202-54.105304-128.29035-81.222077-192.411141-0.487679-1.150562-1.358277-2.138564-2.969425-4.611278-3.543803 5.949687-6.706493 11.153405-9.766229 16.420341-5.133276 8.839638-9.67953 18.073032-15.423308 26.495433-9.150308 13.429242-25.754883 18.822613-39.751278 12.408728-61.937072-28.391964-110.753765-70.780322-139.765262-133.624116-15.094576-32.699797-17.917697-66.31896-5.960524-100.71841 0.31067-0.897691 0.603277-1.826088 0.715263-2.759903 0.070443-0.585215-0.216746-1.213779-0.59244-3.012774-15.031358 24.822874-26.64535 50.109947-33.752823 77.336899-18.912924 72.454688 0.494904 136.391244 46.548082 192.541189 20.578258 25.090195 45.457125 46.764828 69.243229 69.075251 20.500591 19.229012 23.726499 33.064653 10.645858 57.547958-5.716685 10.694625-11.324996 21.44705-16.983882 32.170575C760.212485 861.808266 763.414912 861.808266 766.624564 861.808266z"  horiz-adv-x="1024" />

    
    <glyph glyph-name="baobiao3" unicode="&#58904;" d="M278.758 196.267h227.558c12.51 0 22.75 11.52 22.75 25.6s-10.24 25.6-22.758 25.6h-227.55c-12.518 0-22.758-11.52-22.758-25.6s10.24-25.6 22.758-25.6zM768 699.733h-512v-273.067h512v273.067zM499.678 500.113c-4.975-4.975-13.124-4.975-18.099 0l-60.723 60.723-62.199-62.199c-4.975-4.975-13.124-4.975-18.099 0s-4.975 13.124 0 18.099l68.446 68.446c4.975 4.975 17.254 6.451 22.238 1.468l68.446-68.446c4.966-4.966 4.966-13.116-0.009-18.091zM665.6 537.6c0-7.040-5.76-12.8-12.8-12.8s-12.8 5.76-12.8 12.8v58.82l-97.775-97.783c-4.975-4.975-13.124-4.975-18.099 0s-4.975 13.124 0 18.099l97.655 97.664h-67.115c-7.040 0-12.8 5.76-12.8 12.8 0 7.040 5.76 12.8 12.8 12.8h96.794c0.273 0 0.538 0.009 0.802 0.017 0.341 0.017 0.657 0.034 0.998 0.017 6.409 0.154 12.339 0.794 12.339-5.641v-96.794zM281.6 298.667h170.667c14.080 0 25.6 11.52 25.6 25.6s-11.52 25.6-25.6 25.6h-170.667c-14.080 0-25.6-11.52-25.6-25.6 0-14.080 11.52-25.6 25.6-25.6zM282.709 93.867h356.181c14.694 0 26.709 11.52 26.709 25.6s-12.023 25.6-26.709 25.6h-356.181c-14.686 0-26.709-11.52-26.709-25.6 0-14.080 12.023-25.6 26.709-25.6zM819.2 810.667h-614.4c-18.85 0-34.133-15.283-34.133-34.133v-785.067c0-18.85 15.283-34.133 34.133-34.133h614.4c18.85 0 34.133 15.283 34.133 34.133v785.067c0 18.85-15.283 34.133-34.133 34.133zM802.133 8.533h-580.267v725.333h580.267l-0-725.333z"  horiz-adv-x="1024" />

    
    <glyph glyph-name="qita" unicode="&#59195;" d="M426.0864 818.176 144.0768 818.176c-32.4608 0-58.7776-26.4192-58.7776-58.7776l0-281.9072c0-32.4608 26.4192-58.7776 58.7776-58.7776l281.9072 0c32.4608 0 58.7776 26.4192 58.7776 58.7776L484.7616 759.3984C484.864 791.8592 458.4448 818.176 426.0864 818.176zM437.76 477.4912c0-6.4512-5.2224-11.6736-11.6736-11.6736L144.0768 465.8176c-6.4512 0-11.6736 5.2224-11.6736 11.6736L132.4032 759.3984c0 6.4512 5.2224 11.6736 11.6736 11.6736l281.9072 0c6.4512 0 11.6736-5.2224 11.6736-11.6736L437.6576 477.4912zM892.7232 818.176 610.816 818.176c-32.4608 0-58.7776-26.4192-58.7776-58.7776l0-281.9072c0-32.4608 26.4192-58.7776 58.7776-58.7776l281.9072 0c32.4608 0 58.7776 26.4192 58.7776 58.7776L951.5008 759.3984C951.5008 791.8592 925.184 818.176 892.7232 818.176zM892.7232 465.8176 610.816 465.8176c-6.4512 0-11.6736 5.2224-11.6736 11.6736L599.1424 759.3984c0 6.4512 5.2224 11.6736 11.6736 11.6736l281.9072 0c6.4512 0 11.6736-5.2224 11.6736-11.6736l0-281.9072C904.3968 471.04 899.1744 465.8176 892.7232 465.8176zM426.0864 358.8096 144.0768 358.8096c-32.4608 0-58.7776-26.4192-58.7776-58.7776l0-281.9072c0-32.4608 26.4192-58.7776 58.7776-58.7776l281.9072 0c32.4608 0 58.7776 26.4192 58.7776 58.7776L484.7616 300.032C484.864 332.4928 458.4448 358.8096 426.0864 358.8096zM437.76 18.1248c0-6.4512-5.2224-11.6736-11.6736-11.6736L144.0768 6.4512c-6.4512 0-11.6736 5.2224-11.6736 11.6736L132.4032 300.032c0 6.4512 5.2224 11.6736 11.6736 11.6736l281.9072 0c6.4512 0 11.6736-5.2224 11.6736-11.6736L437.6576 18.1248zM892.7232 358.8096 610.816 358.8096c-32.4608 0-58.7776-26.4192-58.7776-58.7776l0-281.9072c0-32.4608 26.4192-58.7776 58.7776-58.7776l281.9072 0c32.4608 0 58.7776 26.4192 58.7776 58.7776L951.5008 300.032C951.5008 332.4928 925.184 358.8096 892.7232 358.8096zM892.7232 6.4512 610.816 6.4512c-6.4512 0-11.6736 5.2224-11.6736 11.6736L599.1424 300.032c0 6.4512 5.2224 11.6736 11.6736 11.6736l281.9072 0c6.4512 0 11.6736-5.2224 11.6736-11.6736l0-281.9072C904.3968 11.6736 899.1744 6.4512 892.7232 6.4512z"  horiz-adv-x="1024" />

    
    <glyph glyph-name="zigeshencha" unicode="&#59123;" d="M694.242-128.003 329.763-128.003C147.915-128.003 0 19.908 0 201.758L0 566.237C0 748.084 147.915 896 329.763 896l364.479 0c181.85 0 329.761-147.916 329.761-329.763l0-364.479C1024.003 19.908 876.092-128.003 694.242-128.003zM329.763 843.917c-153.105 0-277.681-124.575-277.681-277.683l0-364.476c0-153.1 124.575-277.691 277.681-277.691l364.479 0c153.1 0 277.681 124.58 277.681 277.691L971.923 566.237c0 153.105-124.58 277.681-277.681 277.681L329.763 843.918 329.763 843.917zM740.532 348.234c-91.955 0-166.585-73.075-166.585-163.295 0-90.225 74.63-163.305 166.585-163.305 91.955 0 166.58 73.08 166.58 163.305C907.112 275.048 832.487 348.234 740.532 348.234zM738.477 78.858c-8.665-8.365-22.745-8.365-31.415 0l-70.72 68.46c-8.665 8.365-8.665 22.08 0 30.44 8.66 8.355 22.74 8.355 31.405 0l55.025-53.26 106.03 102.76c8.66 8.365 22.745 8.365 31.41 0 8.66-8.35 8.66-22.07 0-30.43L738.477 78.858zM765.222 558.579 544.166 558.579c-9.21 0-16.575-7.393-16.575-16.393 0-9.113 7.48-16.395 16.575-16.395l221.056 0c9.21 0 16.575 7.393 16.575 16.395C781.797 551.187 774.322 558.579 765.222 558.579L765.222 558.579zM765.222 476.821 544.166 476.821c-9.21 0-16.575-7.393-16.575-16.395 0-9.105 7.48-16.395 16.575-16.395l221.056 0c9.21 0 16.575 7.393 16.575 16.395S774.322 476.821 765.222 476.821L765.222 476.821zM620.417 378.564c0 9.105-7.475 16.39-16.57 16.39l-59.57 0c-9.205 0-16.575-7.395-16.575-16.39 0-9.11 7.47-16.4 16.575-16.4l59.57 0C612.942 362.164 620.417 369.559 620.417 378.564L620.417 378.564zM184.688 169.723c-21.553 2.24-38.448 20.465-38.448 42.32L146.24 623.514c0 23.36 19.275 40.825 42.998 40.825l628.734 0c23.61 0 44.73-17.358 44.73-40.825l0-255.236c10.615-8.15 20.36-17.155 29.245-27.005L891.947 638.084c0 31.398-28.375 54.65-60.005 54.65L174.508 692.734c-31.738 0-57.623-23.252-57.623-54.65l0-439.966c0-29.36 22.745-53.795 51.665-56.795l345.941 0c-2.603 9.215-4.55 18.755-5.853 28.5L184.688 169.823 184.688 169.723zM519.581 294.123l-65.528 120.225c6.715 15.002 10.397 31.718 10.397 49.188 0 67.395-55.133 122.153-123.148 122.153-68.02 0-123.15-54.648-123.15-122.153 0-17.898 3.902-34.935 10.94-50.258l-65.958-119.045c-2.167-3.86-1.842-8.57 0.863-11.995 2.71-3.54 7.15-5.15 11.483-4.08l56.213 12.745 19.28-53.14c1.517-4.07 5.307-6.965 9.748-7.285 0.328 0 0.542 0 0.867 0 4.113 0 7.905 2.245 9.855 5.895l57.295 105.865c4.117-0.435 8.34-0.645 12.565-0.645 3.9 0 7.69 0.21 11.588 0.535l58.488-105.865c1.95-3.645 5.743-5.785 9.855-5.785 0.325 0 0.54 0 0.867 0 4.44 0.32 8.233 3.215 9.638 7.285l19.28 53.14 56.323-12.745c4.33-1.07 8.77 0.64 11.37 4.08C521.311 285.663 521.631 290.373 519.581 294.123L519.581 294.123 519.581 294.123zM263.428 268.728l-14.08 38.895c-1.95 5.25-7.475 8.36-12.998 7.08l-41.59-9.43 47.44 85.72c15.598-20.9 37.8-36.65 63.578-44.365L263.428 268.728 263.428 268.728zM240.576 463.536c0 54.968 45.163 99.758 100.728 99.758 55.453 0 100.725-44.79 100.725-99.758 0-55.078-45.163-99.873-100.725-99.873C285.738 363.774 240.576 408.564 240.576 463.536L240.576 463.536 240.576 463.536zM446.256 314.703c-5.527 1.28-11.157-1.83-12.997-7.08l-14.19-39.215-43.108 77.9c26.43 7.715 49.173 23.895 64.983 45.325l47.228-86.47L446.256 314.703 446.256 314.703z"  horiz-adv-x="1024" />

    
    <glyph glyph-name="hujixinxichaxun" unicode="&#59092;" d="M1007.711573-104.024747l-10.267307-10.253653c-7.686827-7.686827-20.507307-7.686827-28.207787 0l-71.789227 74.38336c-33.327787-23.087787-74.369707-38.475093-117.992107-38.475093-107.697493 0-197.481813 89.757013-197.481813 200.034987 0 107.697493 89.78432 197.46816 200.04864 197.46816s200.00768-89.770667 200.00768-200.034987c0-46.16192-15.373653-89.729707-43.58144-125.651627l71.816533-71.816533C1015.3984-83.490133 1015.3984-96.351573 1007.711573-104.024747L1007.711573-104.024747 1007.711573-104.024747M782.021973 267.823787c-82.08384 0-148.76672-66.68288-148.76672-146.158933 0-79.517013 66.68288-146.18624 148.76672-146.18624 82.070187 0 148.739413 66.669227 148.739413 146.18624C930.761387 201.140907 861.55264 267.823787 782.021973 267.823787L782.021973 267.823787 782.021973 267.823787M530.377387 97.498453l9.393493 0c-0.013653 0.273067-0.027307 0.505173-0.054613 0.77824C536.644267 98.003627 533.517653 97.73056 530.377387 97.498453zM469.988693 467.298987c-56.251733 0-101.840213-49.179307-101.840213-109.85472 0-30.43328 11.482453-58.053973 30.078293-77.919573 2.307413-2.184533 67.05152-62.0544 136.328533-7.031467 22.69184 20.125013 37.23264 50.681173 37.23264 84.95104C571.774293 418.146987 526.185813 467.298987 469.988693 467.298987zM539.11552 114.333013c0 41.28768 10.36288 80.145067 28.617387 114.11456L547.498667 246.920533c-20.76672-17.025707-79.639893-52.933973-161.000107 1.297067-24.49408-18.855253-89.961813-72.977067-82.684587-109.499733 0 0 1.283413-38.079147 70.505813-39.922347 0 0 8.219307-0.641707 21.531307-1.31072l85.77024 0 48.769707 0c3.140267 0.24576 6.26688 0.477867 9.33888 0.750933C539.347627 103.560533 539.11552 108.91264 539.11552 114.333013zM530.377387 97.498453c-48.57856-3.467947-104.61184-1.51552-134.539947 0L160.89088 97.498453 160.89088 514.812587 465.851733 772.969813l304.919893-258.12992 0-158.952107c3.386027 0.16384 6.772053 0.28672 10.185387 0.28672 17.89952 0 35.30752-1.993387 52.073813-5.69344l0 111.643307 6.51264-5.48864c9.366187-7.932587 20.794027-11.823787 32.139947-11.823787 14.144853 0 28.166827 5.98016 38.05184 17.626453 17.790293 20.998827 15.11424 52.442453-5.829973 70.191787L498.018987 876.25728c-18.568533 15.72864-45.79328 15.72864-64.375467 0L27.77088 532.630187c-20.985173-17.749333-23.606613-49.19296-5.81632-70.191787 17.749333-20.985173 49.19296-23.620267 70.191787-5.802667l6.485333 5.48864 0-395.75552c0-17.2032 13.9264-31.102293 31.115947-31.102293L552.413867 35.26656c-6.826667 19.688107-11.127467 40.605013-12.65664 62.231893L530.377387 97.498453zM395.83744 97.498453c29.928107-1.51552 85.961387-3.467947 134.539947 0l-48.769707 0L395.83744 97.498453z"  horiz-adv-x="1024" />

    
    <glyph glyph-name="yonghu" unicode="&#59077;" d="M960.743304-125.315868c-16.954137 0-30.699186 13.745049-30.699186 30.699186 0 230.510978-187.534164 418.044118-418.044118 418.044118-230.509954 0-418.044118-187.534164-418.044118-418.044118 0-16.954137-13.745049-30.699186-30.699186-30.699186s-30.699186 13.745049-30.699186 30.699186c0 64.710814 12.68081 127.502929 37.689391 186.630585 24.149003 57.095369 58.71424 108.365056 102.735849 152.386665 44.021609 44.021609 95.29232 78.586846 152.386666 102.73585 59.127655 25.00858 121.91977 37.689391 186.629561 37.68939 64.710814 0 127.502929-12.68081 186.630584-37.68939 57.095369-24.150026 108.365056-58.71424 152.386666-102.73585 44.021609-44.021609 78.586846-95.291297 102.735849-152.386665 25.00858-59.127655 37.689391-121.91977 37.689391-186.630585 0.001023-16.95516-13.744026-30.699186-30.698163-30.699186zM512 323.427436c-76.111468 0-147.667178 29.639041-201.485921 83.457784-53.818743 53.818743-83.458807 125.375475-83.458806 201.48592s29.639041 147.667178 83.458806 201.485921S435.889555 893.315868 512 893.315868s147.667178-29.639041 201.485921-83.458807c53.818743-53.818743 83.458807-125.375475 83.458806-201.485921s-29.640064-147.667178-83.458806-201.48592c-53.819766-53.818743-125.375475-83.457784-201.485921-83.457784z m0 508.491083c-123.264395 0-223.546356-100.282984-223.546356-223.546355s100.282984-223.546356 223.546356-223.546356c123.263371 0 223.546356 100.281961 223.546356 223.546356S635.263371 831.918519 512 831.918519z"  horiz-adv-x="1024" />

    
    <glyph glyph-name="zhineng" unicode="&#59434;" d="M831.599304 845.445565c79.649391 0 144.13913-64.222609 144.139131-143.582608 0-79.248696-64.467478-143.560348-144.139131-143.560348a143.849739 143.849739 0 0 0-103.045565 43.230608l-34.793739-35.706434a210.899478 210.899478 0 0 0 61.773913-149.414957 210.587826 210.587826 0 0 0-57.700174-145.252174l59.169391-54.205217a160.211478 160.211478 0 0 0 102.043827 36.61913c88.598261 0 160.52313-71.613217 160.52313-159.877565 0-88.397913-71.902609-159.899826-160.52313-159.899826s-160.52313 71.501913-160.523131 159.899826c0 39.446261 14.469565 75.597913 38.221913 103.513043l-59.748174 54.650435a212.146087 212.146087 0 0 0-134.299826-47.571478 213.125565 213.125565 0 0 0-145.741913 57.344l-29.673739-30.430609a195.695304 195.695304 0 0 0 34.125913-110.836869c0-109.256348-88.865391-197.854609-198.477913-197.854609-109.679304 0-198.589217 88.576-198.589217 197.854609 0 109.122783 88.909913 197.743304 198.589217 197.743304a198.344348 198.344348 0 0 0 146.721391-64.534261l28.026435 28.738783a210.231652 210.231652 0 0 0-47.972174 134.099478c0 44.254609 13.623652 85.414957 36.930783 119.385044l-65.001739 59.65913a118.049391 118.049391 0 0 0-83.990261-34.882783c-65.313391 0-118.272 52.669217-118.272 117.782261 0 65.024 52.936348 117.804522 118.272 117.804522 65.246609 0 118.272-52.780522 118.272-117.804522 0-22.238609-6.188522-42.985739-16.896-60.660869l65.157565-59.659131a212.880696 212.880696 0 0 0 158.497391 70.500174c48.818087 0 93.918609-16.539826 129.825392-44.032l38.132869 39.112348a142.491826 142.491826 0 0 0-23.218087 78.224696c0.066783 79.404522 64.578783 143.60487 144.183652 143.604869zM435.222261 303.193043h221.562435s4.697043 29.896348-0.445218 46.191305c-5.053217 16.294957-51.489391 71.858087-59.837217 74.351304-3.094261 0.912696-17.964522 1.26887-35.350261 1.135305 23.396174 10.039652 40.470261 39.824696 40.470261 66.849391 0 33.28-25.733565 60.193391-57.655652 60.193391-31.721739 0-57.522087-26.913391-57.522087-60.193391 0-27.38087 17.519304-57.61113 41.494261-67.272348-18.543304-0.356174-33.435826-0.690087-33.435826-0.690087s-56.453565-40.937739-59.302957-77.645913c-2.938435-36.864 0.022261-42.918957 0.022261-42.918957z"  horiz-adv-x="1024" />

    
    <glyph glyph-name="qita2" unicode="&#59003;" d="M456.192 347.136h-329.728c-19.968 0-36.864-16.384-36.864-36.864v-329.728c0-19.968 16.384-36.864 36.864-36.864h329.728c19.968 0 36.864 16.384 36.864 36.864v329.728c0 20.48-16.384 36.864-36.864 36.864z m-22.016-344.064H148.48v285.696h285.696v-285.696zM932.352 347.136h-329.728c-19.968 0-36.864-16.384-36.864-36.864v-329.728c0-19.968 16.384-36.864 36.864-36.864h329.728c19.968 0 36.864 16.384 36.864 36.864v329.728c-0.512 20.48-16.896 36.864-36.864 36.864z m-22.016-344.064H624.64v285.696h285.696v-285.696zM456.192 823.808h-329.728c-19.968 0-36.864-16.384-36.864-36.864v-329.728c0-19.968 16.384-36.864 36.864-36.864h329.728c19.968 0 36.864 16.384 36.864 36.864v329.728c0 20.48-16.384 36.864-36.864 36.864z m-22.016-344.576H148.48v285.696h285.696v-285.696zM767.488 823.808c-111.104 0-201.728-90.112-201.728-201.728 0-111.104 90.112-201.728 201.728-201.728s201.728 90.112 201.728 201.728c-0.512 111.104-90.624 201.728-201.728 201.728m0-58.88c78.848 0 142.848-64 142.848-142.848s-64-142.848-142.848-142.848S624.64 543.232 624.64 622.08s64 142.848 142.848 142.848"  horiz-adv-x="1024" />

    
    <glyph glyph-name="renyuanxinxi1" unicode="&#58910;" d="M499.712 396.288c50.688 40.448 82.944 101.888 82.944 171.52 0 120.832-98.304 219.648-219.648 219.648s-219.648-98.304-219.648-219.648c0-70.144 33.28-132.608 84.992-173.056-133.632-54.272-228.352-185.856-228.352-338.944v-37.888c0-19.968 16.384-36.352 36.352-36.352h658.432c19.968 0 36.352 16.384 36.352 36.352V55.808c1.024 155.136-95.744 287.232-231.424 340.48z m-282.624 171.52c0 80.896 65.536 146.432 146.432 146.432s146.432-65.536 146.432-146.432c0-79.872-64-144.384-143.36-145.92h-4.608c-79.872 0.512-144.896 66.048-144.896 145.92z m-143.36-513.024v1.536c0 159.744 129.024 289.792 288.256 292.352h6.656c160.256-1.024 290.816-131.584 290.816-292.352l-585.728-1.536zM986.624 566.784H671.232c-19.968 0-36.352 16.384-36.352 36.352 0 19.968 16.384 36.352 36.352 36.352h315.392c19.968 0 36.352-16.384 36.352-36.352 0-19.968-16.384-36.352-36.352-36.352zM986.624 384h-249.856c-19.968 0-36.352 16.384-36.352 36.352 0 19.968 16.384 36.352 36.352 36.352h249.856c19.968 0 36.352-16.384 36.352-36.352 0-19.968-16.384-36.352-36.352-36.352zM986.624 201.216h-174.592c-19.968 0-36.352 16.384-36.352 36.352 0 19.968 16.384 36.352 36.352 36.352h174.592c19.968 0 36.352-16.384 36.352-36.352 0-19.968-16.384-36.352-36.352-36.352z"  horiz-adv-x="1024" />

    
    <glyph glyph-name="guanbi" unicode="&#58945;" d="M817.707 645.174c14.122 14.122 14.39 37.69 0.018 52.061-14.471 14.471-37.679 14.363-52.061-0.018L505.469 437.021 245.274 697.217c-14.122 14.122-37.689 14.389-52.061 0.018-14.471-14.471-14.363-37.68 0.019-52.061l260.195-260.195-260.196-260.196c-14.122-14.122-14.39-37.69-0.019-52.061 14.471-14.471 37.68-14.363 52.061 0.018l260.195 260.195L765.663 72.74c14.122-14.122 37.691-14.389 52.061-0.018 14.472 14.471 14.363 37.68-0.018 52.061L557.512 384.979l260.195 260.195z"  horiz-adv-x="1024" />

    
    <glyph glyph-name="zhanghao" unicode="&#58903;" d="M674.72 727.04c7.456-29.952 8.192-32.448 7.488-63.2-0.288-11.872-7.072-66.688-5.248-83.52 1.536-13.856 4.992-14.976 10.464-26.4 9.504-19.904 6.336-47.328 2.656-67.392-1.984-10.976-6.24-26.592-12.64-35.552-7.072-9.888-21.248-9.952-27.488-21.472-9.024-16.576-3.936-39.872-9.632-57.792-6.464-20.32-22.944-21.728-24.16-48.32 8.064-1.12 16.128-2.304 24.16-3.424 8.096-17.152 22.88-51.712 37.984-62.112 12.64-3.456 25.312-6.912 37.952-10.368 44.352-18.176 93.632-39.936 138.08-58.688 40.48-17.088 88.928-23.168 103.552-65.6 0-28.8 2.72-96.864 1.984-134.624L78.208-11.424c-0.736 37.76 1.952 105.824 1.952 134.624 14.624 42.432 63.104 48.512 103.552 65.6 44.448 18.752 93.728 40.48 138.08 58.688 12.64 3.424 25.312 6.912 37.984 10.368 15.104 10.4 29.888 44.96 37.952 62.112l17.984 4.384c-4.064 22.688-18.144 24.448-23.968 40.512-2.304 24.16-4.576 48.352-6.88 72.512 0.096-1.152-16.544 3.04-18.72 4.384-23.424 14.688-23.904 74.368-26.144 99.168-1.024 11.36 14.72 20.64 10.368 41.44-25.696 121.76 11.104 178.752 69.28 197.632 40.384 16.384 115.808 46.688 186.176 3.424l17.44-16.16 28.256-4.896C665.664 754.144 674.72 727.04 674.72 727.04z"  horiz-adv-x="1024" />

    
    <glyph glyph-name="quanxian" unicode="&#58891;" d="M860.8 792.9h4.3l-336.9 39.1h-25.9l-343.4-39.1h4.3c-23.8-4.3-43.2-23.9-43.2-49.9v-312.4s32.4-388.3 390.9-494.6h4.3c330.5 97.6 382.3 438.2 388.8 488.1v327.6c-2.2 23.9-19.4 41.2-43.2 41.2zM696.7 474l-216-216.9c-2.2-2.2-6.5-4.3-8.6-6.5-8.6-4.3-21.6-2.2-28.1 6.5l-121 121.5c-10.8 10.8-10.8 26 0 36.9s25.9 10.8 36.7 0l101.5-102 196.5 197.4c10.8 10.8 25.9 10.8 36.7 0 13.1-8.7 13.1-26 2.3-36.9z"  horiz-adv-x="1024" />

    
    </font>
</defs>
</svg>
